<?xml version="1.0" encoding="UTF-8" standalone="no"?>
<!-- Created with Inkscape (http://www.inkscape.org/) -->

<svg
   xmlns:dc="http://purl.org/dc/elements/1.1/"
   xmlns:cc="http://creativecommons.org/ns#"
   xmlns:rdf="http://www.w3.org/1999/02/22-rdf-syntax-ns#"
   xmlns:svg="http://www.w3.org/2000/svg"
   xmlns="http://www.w3.org/2000/svg"
   xmlns:xlink="http://www.w3.org/1999/xlink"
   xmlns:inkscape="http://www.inkscape.org/namespaces/inkscape"
   version="1.2"
   width="348.16574"
   height="397.34125"
   id="svg2">
  <defs
     id="defs4">
    <inkscape:path-effect
       effect="spiro"
       id="path-effect4594" />
    <inkscape:path-effect
       effect="spiro"
       id="path-effect4590" />
    <inkscape:path-effect
       effect="spiro"
       id="path-effect4586" />
    <inkscape:path-effect
       effect="spiro"
       id="path-effect4582" />
    <inkscape:path-effect
       effect="spiro"
       id="path-effect4578" />
    <inkscape:path-effect
       effect="spiro"
       id="path-effect4574" />
    <inkscape:path-effect
       effect="spiro"
       id="path-effect4570" />
    <inkscape:path-effect
       effect="spiro"
       id="path-effect4562" />
    <linearGradient
       id="linearGradient4539">
      <stop
         id="stop4541"
         style="stop-color:#e6e6e6;stop-opacity:1"
         offset="0" />
      <stop
         id="stop4543"
         style="stop-color:#e6e6e6;stop-opacity:0"
         offset="1" />
    </linearGradient>
    <linearGradient
       id="linearGradient4529">
      <stop
         id="stop4531"
         style="stop-color:#000080;stop-opacity:1"
         offset="0" />
      <stop
         id="stop4533"
         style="stop-color:#000000;stop-opacity:0"
         offset="1" />
    </linearGradient>
    <linearGradient
       id="linearGradient4498">
      <stop
         id="stop4500"
         style="stop-color:#000000;stop-opacity:1"
         offset="0" />
      <stop
         id="stop4502"
         style="stop-color:#000000;stop-opacity:0"
         offset="1" />
    </linearGradient>
    <linearGradient
       id="linearGradient3646">
      <stop
         id="stop3648"
         style="stop-color:#ffffff;stop-opacity:1"
         offset="0" />
      <stop
         id="stop3650"
         style="stop-color:#ffffff;stop-opacity:0"
         offset="1" />
    </linearGradient>
    <linearGradient
       id="linearGradient3636">
      <stop
         id="stop3638"
         style="stop-color:#000080;stop-opacity:1"
         offset="0" />
      <stop
         id="stop3640"
         style="stop-color:#000080;stop-opacity:0"
         offset="1" />
    </linearGradient>
    <linearGradient
       id="linearGradient3597">
      <stop
         id="stop3599"
         style="stop-color:#000080;stop-opacity:1"
         offset="0" />
      <stop
         id="stop3601"
         style="stop-color:#000080;stop-opacity:0"
         offset="1" />
    </linearGradient>
    <linearGradient
       id="linearGradient3587">
      <stop
         id="stop3589"
         style="stop-color:#00ffff;stop-opacity:1"
         offset="0" />
      <stop
         id="stop3591"
         style="stop-color:#00ffff;stop-opacity:0"
         offset="1" />
    </linearGradient>
    <linearGradient
       id="linearGradient3577">
      <stop
         id="stop3579"
         style="stop-color:#008080;stop-opacity:1"
         offset="0" />
      <stop
         id="stop3581"
         style="stop-color:#008080;stop-opacity:0"
         offset="1" />
    </linearGradient>
    <clipPath
       id="clipPath2963">
      <rect
         width="776.63763"
         height="562.87994"
         x="241.06635"
         y="116.83776"
         transform="matrix(0.66967182,0.74265715,-0.9211149,0.38929081,0,0)"
         id="rect2965"
         style="fill:#800000;fill-opacity:1;stroke:#ffc255;stroke-width:0.19779854;stroke-miterlimit:4;stroke-dasharray:none" />
    </clipPath>
    <clipPath
       id="clipPath3490">
      <path
         d="M 1019.2293,975.99943 14.545554,990.93042 229.59029,815.75113 894.70993,804.64191 z"
         id="path3492"
         style="opacity:0.55;fill:#800000;fill-opacity:1;stroke:#ffc255;stroke-width:0.17425698;stroke-miterlimit:4" />
    </clipPath>
    <clipPath
       id="clipPath3503">
      <path
         d="m 252.22569,734.55791 460.20803,-3.41203 274.86573,314.29162 -1041.899536,7.7248 z"
         id="path3505"
         style="opacity:0.55;fill:#800000;fill-opacity:1;stroke:#ffc255;stroke-width:0.20740226;stroke-miterlimit:4" />
    </clipPath>
    <linearGradient
       x1="271.11752"
       y1="607.9303"
       x2="179.01691"
       y2="51.876614"
       id="linearGradient3583"
       xlink:href="#linearGradient3577"
       gradientUnits="userSpaceOnUse" />
    <linearGradient
       x1="-29.92778"
       y1="-188.23747"
       x2="321.9791"
       y2="482.95865"
       id="linearGradient3593"
       xlink:href="#linearGradient3587"
       gradientUnits="userSpaceOnUse" />
    <linearGradient
       x1="233.58324"
       y1="635.6308"
       x2="219.91573"
       y2="330.78711"
       id="linearGradient3603"
       xlink:href="#linearGradient3597"
       gradientUnits="userSpaceOnUse" />
    <clipPath
       id="clipPath3607">
      <path
         d="m 415.71428,328.38019 a 170.71428,168.57143 0 1 1 -341.428559,0 170.71428,168.57143 0 1 1 341.428559,0 z"
         transform="matrix(0.79727116,0,0,0.49127206,29.70961,254.99343)"
         id="path3609"
         style="opacity:0.87999998;fill:#000080;fill-opacity:1;stroke:none" />
    </clipPath>
    <clipPath
       id="clipPath3611">
      <path
         d="m 415.71428,328.38019 a 170.71428,168.57143 0 1 1 -341.428559,0 170.71428,168.57143 0 1 1 341.428559,0 z"
         transform="matrix(0.96224534,0,0,0.98292318,7.1873928,8.5351348)"
         id="path3613"
         style="opacity:0.87999998;fill:#000080;fill-opacity:1;stroke:none" />
    </clipPath>
    <clipPath
       id="clipPath3615">
      <path
         d="m 415.71428,328.38019 a 170.71428,168.57143 0 1 1 -341.428559,0 170.71428,168.57143 0 1 1 341.428559,0 z"
         transform="matrix(0.96224534,0,0,0.98292318,12.685943,9.9393094)"
         id="path3617"
         style="opacity:0.87999998;fill:#000080;fill-opacity:1;stroke:none" />
    </clipPath>
    <clipPath
       id="clipPath3619">
      <path
         d="m 415.71428,328.38019 a 170.71428,168.57143 0 1 1 -341.428559,0 170.71428,168.57143 0 1 1 341.428559,0 z"
         transform="matrix(0.5835531,0,0,0.5835531,-141.58545,-191.54134)"
         id="path3621"
         style="opacity:0.87999998;fill:#000080;fill-opacity:1;stroke:none" />
    </clipPath>
    <linearGradient
       x1="233.58324"
       y1="635.6308"
       x2="219.91573"
       y2="330.78711"
       id="linearGradient3625"
       xlink:href="#linearGradient3597"
       gradientUnits="userSpaceOnUse" />
    <linearGradient
       x1="233.58324"
       y1="635.6308"
       x2="219.91573"
       y2="330.78711"
       id="linearGradient3633"
       xlink:href="#linearGradient3597"
       gradientUnits="userSpaceOnUse" />
    <linearGradient
       x1="255.9711"
       y1="226.95161"
       x2="254.47832"
       y2="344.15659"
       id="linearGradient3652"
       xlink:href="#linearGradient3646"
       gradientUnits="userSpaceOnUse" />
    <filter
       color-interpolation-filters="sRGB"
       id="filter4462">
      <feGaussianBlur
         id="feGaussianBlur4464"
         stdDeviation="4.6928174" />
    </filter>
    <filter
       x="-0.60754323"
       y="-1.3294475"
       width="2.2150865"
       height="3.658895"
       color-interpolation-filters="sRGB"
       id="filter4492">
      <feGaussianBlur
         id="feGaussianBlur4494"
         stdDeviation="67.263716" />
    </filter>
    <radialGradient
       cx="652.72668"
       cy="1033.0957"
       r="539.28571"
       fx="652.72668"
       fy="1033.0957"
       id="radialGradient3195"
       xlink:href="#linearGradient4529"
       gradientUnits="userSpaceOnUse"
       gradientTransform="matrix(-0.18643562,8.3463876e-4,-2.1091176e-4,-0.08788573,375.5953,897.43164)" />
    <radialGradient
       cx="347.56488"
       cy="221.84044"
       r="172.85715"
       fx="347.56488"
       fy="221.84044"
       id="radialGradient3197"
       xlink:href="#linearGradient4539"
       gradientUnits="userSpaceOnUse"
       gradientTransform="matrix(-3.6033634e-5,1.036209,-0.67179008,-6.5774348e-4,386.07661,-8.353925)" />
    <linearGradient
       x1="271.11752"
       y1="607.9303"
       x2="179.01691"
       y2="51.876614"
       id="linearGradient3199"
       xlink:href="#linearGradient3577"
       gradientUnits="userSpaceOnUse" />
    <linearGradient
       x1="-29.92778"
       y1="-188.23747"
       x2="321.9791"
       y2="482.95865"
       id="linearGradient3201"
       xlink:href="#linearGradient3587"
       gradientUnits="userSpaceOnUse" />
    <linearGradient
       x1="233.58324"
       y1="635.6308"
       x2="219.91573"
       y2="330.78711"
       id="linearGradient3203"
       xlink:href="#linearGradient3597"
       gradientUnits="userSpaceOnUse" />
    <linearGradient
       x1="265.71429"
       y1="866.64789"
       x2="248.57141"
       y2="559.50507"
       id="linearGradient3205"
       xlink:href="#linearGradient3636"
       gradientUnits="userSpaceOnUse"
       gradientTransform="matrix(0.93103635,0,0,1,19.605768,0)" />
    <linearGradient
       x1="255.9711"
       y1="226.95161"
       x2="254.47832"
       y2="344.15659"
       id="linearGradient3207"
       xlink:href="#linearGradient3646"
       gradientUnits="userSpaceOnUse" />
    <linearGradient
       x1="247.28813"
       y1="762.05194"
       x2="241.42857"
       y2="146.95161"
       id="linearGradient3209"
       xlink:href="#linearGradient4498"
       gradientUnits="userSpaceOnUse" />
    <radialGradient
       cx="347.56488"
       cy="221.84044"
       r="172.85715"
       fx="347.56488"
       fy="221.84044"
       id="radialGradient3211"
       xlink:href="#linearGradient4539"
       gradientUnits="userSpaceOnUse"
       gradientTransform="matrix(-3.6033634e-5,1.036209,-0.67179008,-6.5774348e-4,386.07661,-8.353925)" />
    <radialGradient
       cx="652.72668"
       cy="1033.0957"
       r="539.28571"
       fx="652.72668"
       fy="1033.0957"
       id="radialGradient3291"
       xlink:href="#linearGradient4529"
       gradientUnits="userSpaceOnUse"
       gradientTransform="matrix(-0.18643562,8.3463876e-4,-2.1091176e-4,-0.08788573,375.5953,897.43164)" />
    <radialGradient
       cx="347.56488"
       cy="221.84044"
       r="172.85715"
       fx="347.56488"
       fy="221.84044"
       id="radialGradient3293"
       xlink:href="#linearGradient4539"
       gradientUnits="userSpaceOnUse"
       gradientTransform="matrix(-3.6033634e-5,1.036209,-0.67179008,-6.5774348e-4,386.07661,-8.353925)" />
    <linearGradient
       x1="271.11752"
       y1="607.9303"
       x2="179.01691"
       y2="51.876614"
       id="linearGradient3295"
       xlink:href="#linearGradient3577"
       gradientUnits="userSpaceOnUse" />
    <linearGradient
       x1="-29.92778"
       y1="-188.23747"
       x2="321.9791"
       y2="482.95865"
       id="linearGradient3297"
       xlink:href="#linearGradient3587"
       gradientUnits="userSpaceOnUse" />
    <linearGradient
       x1="233.58324"
       y1="635.6308"
       x2="219.91573"
       y2="330.78711"
       id="linearGradient3299"
       xlink:href="#linearGradient3597"
       gradientUnits="userSpaceOnUse" />
    <linearGradient
       x1="265.71429"
       y1="866.64789"
       x2="248.57141"
       y2="559.50507"
       id="linearGradient3301"
       xlink:href="#linearGradient3636"
       gradientUnits="userSpaceOnUse"
       gradientTransform="matrix(0.93103635,0,0,1,19.605768,0)" />
    <linearGradient
       x1="255.9711"
       y1="226.95161"
       x2="254.47832"
       y2="344.15659"
       id="linearGradient3303"
       xlink:href="#linearGradient3646"
       gradientUnits="userSpaceOnUse" />
    <linearGradient
       x1="247.28813"
       y1="762.05194"
       x2="241.42857"
       y2="146.95161"
       id="linearGradient3305"
       xlink:href="#linearGradient4498"
       gradientUnits="userSpaceOnUse" />
    <radialGradient
       cx="347.56488"
       cy="221.84044"
       r="172.85715"
       fx="347.56488"
       fy="221.84044"
       id="radialGradient3307"
       xlink:href="#linearGradient4539"
       gradientUnits="userSpaceOnUse"
       gradientTransform="matrix(-3.6033634e-5,1.036209,-0.67179008,-6.5774348e-4,386.07661,-8.353925)" />
    <linearGradient
       x1="265.71429"
       y1="866.64789"
       x2="248.57141"
       y2="559.50507"
       id="linearGradient3313"
       xlink:href="#linearGradient3636"
       gradientUnits="userSpaceOnUse"
       gradientTransform="matrix(0.93103635,0,0,1,1030.6967,227.67473)" />
    <radialGradient
       cx="652.72668"
       cy="1033.0957"
       r="539.28571"
       fx="652.72668"
       fy="1033.0957"
       id="radialGradient3349"
       xlink:href="#linearGradient4529"
       gradientUnits="userSpaceOnUse"
       gradientTransform="matrix(-0.18643562,8.3463876e-4,-2.1091176e-4,-0.08788573,1243.269,906.39522)" />
    <radialGradient
       cx="347.56488"
       cy="221.84044"
       r="172.85715"
       fx="347.56488"
       fy="221.84044"
       id="radialGradient3351"
       xlink:href="#linearGradient4539"
       gradientUnits="userSpaceOnUse"
       gradientTransform="matrix(-3.6033634e-5,1.036209,-0.67179008,-6.5774348e-4,386.07661,-8.353925)" />
    <linearGradient
       x1="271.11752"
       y1="607.9303"
       x2="179.01691"
       y2="51.876614"
       id="linearGradient3353"
       xlink:href="#linearGradient3577"
       gradientUnits="userSpaceOnUse" />
    <linearGradient
       x1="-29.92778"
       y1="-188.23747"
       x2="321.9791"
       y2="482.95865"
       id="linearGradient3355"
       xlink:href="#linearGradient3587"
       gradientUnits="userSpaceOnUse" />
    <linearGradient
       x1="233.58324"
       y1="635.6308"
       x2="219.91573"
       y2="330.78711"
       id="linearGradient3357"
       xlink:href="#linearGradient3597"
       gradientUnits="userSpaceOnUse" />
    <linearGradient
       x1="255.9711"
       y1="226.95161"
       x2="254.47832"
       y2="344.15659"
       id="linearGradient3359"
       xlink:href="#linearGradient3646"
       gradientUnits="userSpaceOnUse" />
    <linearGradient
       x1="247.28813"
       y1="762.05194"
       x2="241.42857"
       y2="146.95161"
       id="linearGradient3361"
       xlink:href="#linearGradient4498"
       gradientUnits="userSpaceOnUse" />
    <radialGradient
       cx="347.56488"
       cy="221.84044"
       r="172.85715"
       fx="347.56488"
       fy="221.84044"
       id="radialGradient3363"
       xlink:href="#linearGradient4539"
       gradientUnits="userSpaceOnUse"
       gradientTransform="matrix(-3.6033634e-5,1.036209,-0.67179008,-6.5774348e-4,386.07661,-8.353925)" />
    <radialGradient
       cx="652.72668"
       cy="1033.0957"
       r="539.28571"
       fx="652.72668"
       fy="1033.0957"
       id="radialGradient3406"
       xlink:href="#linearGradient4529"
       gradientUnits="userSpaceOnUse"
       gradientTransform="matrix(-0.18643562,8.3463876e-4,-2.1091176e-4,-0.08788573,375.5953,897.43164)" />
    <radialGradient
       cx="347.56488"
       cy="221.84044"
       r="172.85715"
       fx="347.56488"
       fy="221.84044"
       id="radialGradient3408"
       xlink:href="#linearGradient4539"
       gradientUnits="userSpaceOnUse"
       gradientTransform="matrix(-3.6033634e-5,1.036209,-0.67179008,-6.5774348e-4,386.07661,-8.353925)" />
    <linearGradient
       x1="271.11752"
       y1="607.9303"
       x2="179.01691"
       y2="51.876614"
       id="linearGradient3410"
       xlink:href="#linearGradient3577"
       gradientUnits="userSpaceOnUse" />
    <linearGradient
       x1="-29.92778"
       y1="-188.23747"
       x2="321.9791"
       y2="482.95865"
       id="linearGradient3412"
       xlink:href="#linearGradient3587"
       gradientUnits="userSpaceOnUse" />
    <linearGradient
       x1="233.58324"
       y1="635.6308"
       x2="219.91573"
       y2="330.78711"
       id="linearGradient3414"
       xlink:href="#linearGradient3597"
       gradientUnits="userSpaceOnUse" />
    <linearGradient
       x1="265.71429"
       y1="866.64789"
       x2="248.57141"
       y2="559.50507"
       id="linearGradient3416"
       xlink:href="#linearGradient3636"
       gradientUnits="userSpaceOnUse"
       gradientTransform="matrix(0.93103635,0,0,1,19.605768,0)" />
    <linearGradient
       x1="255.9711"
       y1="226.95161"
       x2="254.47832"
       y2="344.15659"
       id="linearGradient3418"
       xlink:href="#linearGradient3646"
       gradientUnits="userSpaceOnUse" />
    <linearGradient
       x1="247.28813"
       y1="762.05194"
       x2="241.42857"
       y2="146.95161"
       id="linearGradient3420"
       xlink:href="#linearGradient4498"
       gradientUnits="userSpaceOnUse" />
    <radialGradient
       cx="347.56488"
       cy="221.84044"
       r="172.85715"
       fx="347.56488"
       fy="221.84044"
       id="radialGradient3422"
       xlink:href="#linearGradient4539"
       gradientUnits="userSpaceOnUse"
       gradientTransform="matrix(-3.6033634e-5,1.036209,-0.67179008,-6.5774348e-4,386.07661,-8.353925)" />
    <radialGradient
       cx="347.56488"
       cy="221.84044"
       r="172.85715"
       fx="347.56488"
       fy="221.84044"
       id="radialGradient3461"
       xlink:href="#linearGradient4539"
       gradientUnits="userSpaceOnUse"
       gradientTransform="matrix(-3.6033634e-5,1.036209,-0.67179008,-6.5774348e-4,386.07661,-8.353925)" />
    <linearGradient
       x1="271.11752"
       y1="607.9303"
       x2="179.01691"
       y2="51.876614"
       id="linearGradient3463"
       xlink:href="#linearGradient3577"
       gradientUnits="userSpaceOnUse" />
    <linearGradient
       x1="-29.92778"
       y1="-188.23747"
       x2="321.9791"
       y2="482.95865"
       id="linearGradient3465"
       xlink:href="#linearGradient3587"
       gradientUnits="userSpaceOnUse" />
    <linearGradient
       x1="233.58324"
       y1="635.6308"
       x2="219.91573"
       y2="330.78711"
       id="linearGradient3467"
       xlink:href="#linearGradient3597"
       gradientUnits="userSpaceOnUse" />
    <linearGradient
       x1="255.9711"
       y1="226.95161"
       x2="254.47832"
       y2="344.15659"
       id="linearGradient3469"
       xlink:href="#linearGradient3646"
       gradientUnits="userSpaceOnUse" />
    <linearGradient
       x1="247.28813"
       y1="762.05194"
       x2="241.42857"
       y2="146.95161"
       id="linearGradient3471"
       xlink:href="#linearGradient4498"
       gradientUnits="userSpaceOnUse" />
    <radialGradient
       cx="347.56488"
       cy="221.84044"
       r="172.85715"
       fx="347.56488"
       fy="221.84044"
       id="radialGradient3473"
       xlink:href="#linearGradient4539"
       gradientUnits="userSpaceOnUse"
       gradientTransform="matrix(-3.6033634e-5,1.036209,-0.67179008,-6.5774348e-4,386.07661,-8.353925)" />
  </defs>
  <metadata
     id="metadata7">
    <rdf:RDF>
      <cc:Work
         rdf:about="">
        <dc:format>image/svg+xml</dc:format>
        <dc:type
           rdf:resource="http://purl.org/dc/dcmitype/StillImage" />
        <dc:title></dc:title>
      </cc:Work>
    </rdf:RDF>
  </metadata>
  <g
     transform="translate(-323.17841,-466.5335)"
     id="layer1">
    <g
       transform="matrix(0.95037047,0,0,0.95037047,176.9028,58.118409)"
       id="g3365">
      <g
         transform="translate(98.599287,3.5854288)"
         id="g3155">
        <path
           d="m 181.82402,774.97283 137.55156,-1.18208 99.19583,68.57143 -332.85713,-0.59628 z"
           id="path4509"
           style="fill:url(#radialGradient3406);fill-opacity:1;stroke:none" />
        <path
           d="m 414.28572,324.09448 c 0,97.8333 -77.39078,177.14286 -172.85715,177.14286 -95.46636,0 -172.857144,-79.30956 -172.857144,-177.14286 0,-97.83329 77.390784,-177.14285 172.857144,-177.14285 95.46637,0 172.85715,79.30956 172.85715,177.14285 z"
           transform="matrix(0.97520661,0,0,0.1814516,14.557261,748.84044)"
           id="path4535"
           style="opacity:0.33000004;fill:url(#radialGradient3461);fill-opacity:1;stroke:none" />
        <path
           d="M 1.5313594e-7,100 C -3.1563713,100 -5.7151159,55.228478 -5.715116,2.6794897e-6 -5.7151161,-55.228472 -3.1563716,-99.999999 -1.5313595e-7,-100 c 8.8413244e-8,0 1.76826483e-7,0 2.6523972e-7,0"
           transform="matrix(1.7122634,0.0686761,-0.0686761,1.7122634,242.62651,636.50062)"
           id="path3138"
           style="fill:none;stroke:#000080;stroke-width:1" />
        <path
           d="M 7.1461938e-7,100 C -14.729423,100 -26.669981,55.228478 -26.669981,2.6794897e-6 -26.669981,-55.228472 -14.729425,-99.999999 -7.146194e-7,-100 c 4.1258645e-7,0 8.251729e-7,0 1.23775935e-6,0"
           transform="matrix(1.6811663,0.33202733,-0.33202733,1.6811663,242.62651,636.50062)"
           id="path3140"
           style="fill:none;stroke:#000080;stroke-width:1" />
        <path
           d="M 1.2274045e-6,100 C -25.298727,100 -45.807399,55.228478 -45.8074,2.6794897e-6 -45.8074,-55.228472 -25.29873,-99.999999 -1.2274046e-6,-100 c 7.0864367e-7,0 1.41728731e-6,0 2.12593095e-6,0"
           transform="matrix(1.5982015,0.61831571,-0.61831571,1.5982015,242.62651,636.50062)"
           id="path3142"
           style="fill:none;stroke:#000080;stroke-width:1" />
        <path
           d="M 1.6565459e-6,100 C -34.144003,100 -61.823188,55.228478 -61.823189,2.6794897e-6 -61.82319,-55.228472 -34.144006,-99.999999 -1.656546e-6,-100 c 9.5640902e-7,0 1.91281802e-6,0 2.869227e-6,0"
           transform="matrix(1.4303357,0.94377015,-0.94377015,1.4303357,242.62651,636.50062)"
           id="path3144"
           style="fill:none;stroke:#000080;stroke-width:1" />
        <path
           d="M 1.9727984e-6,100 C -40.66246,100 -73.625899,55.228478 -73.6259,2.6794897e-6 -73.625901,-55.228472 -40.662464,-99.999999 -1.9727984e-6,-100 c 1.13899774e-6,0 2.2779955e-6,0 3.4169933e-6,0"
           transform="matrix(1.1100908,1.3054734,-1.3054734,1.1100908,242.62651,636.50062)"
           id="path3146"
           style="fill:none;stroke:#000080;stroke-width:1" />
        <path
           d="M 2.1546096e-6,100 C -44.409874,100 -80.411193,55.228478 -80.411194,2.6794897e-6 -80.411195,-55.228472 -44.409878,-99.999999 -2.1546097e-6,-100 c 1.24396675e-6,0 2.48793348e-6,0 3.7319002e-6,0"
           transform="matrix(0.55001284,1.6229751,-1.6229751,0.55001284,242.62651,636.50062)"
           id="path3148"
           style="fill:none;stroke:#000080;stroke-width:1" />
        <path
           d="M 1.6028976e-6,-100 C 45.130866,-99.999999 81.71666,-55.228473 81.71666,1.961531e-6 81.716659,55.228475 45.130866,99.999998 2.7762813e-6,100"
           transform="matrix(0.2073807,-1.7010455,1.7010455,0.2073807,242.62651,636.50062)"
           id="path3150"
           style="fill:none;stroke:#000080;stroke-width:1" />
        <path
           d="M 1.5192714e-6,-100 C 42.776303,-99.999999 77.453347,-55.228473 77.453346,1.961531e-6 77.453345,55.228475 42.776303,99.999998 2.6314374e-6,100"
           transform="matrix(0.88200287,-1.4692288,1.4692288,0.88200287,242.62651,636.50062)"
           id="path3152"
           style="fill:none;stroke:#000080;stroke-width:1" />
        <path
           d="M 1.3321106e-6,-100 C 37.506642,-99.999999 67.911782,-55.228473 67.911781,1.961531e-6 67.911781,55.228475 37.506642,99.999998 2.3072677e-6,100"
           transform="matrix(1.3054565,-1.1101107,1.1101107,1.3054565,242.62651,636.50062)"
           id="path3154"
           style="fill:none;stroke:#000080;stroke-width:1" />
        <path
           d="M 1.0541701e-6,-100 C 29.681004,-99.999999 53.742211,-55.228473 53.74221,1.961531e-6 53.74221,55.228475 29.681004,99.999998 1.8258638e-6,100"
           transform="matrix(1.5335827,-0.76464799,0.76464799,1.5335827,242.62651,636.50062)"
           id="path3156"
           style="fill:none;stroke:#000080;stroke-width:1" />
        <path
           d="M 7.0439095e-7,-100 C 19.832691,-99.999999 35.910263,-55.228473 35.910263,1.961531e-6 35.910263,55.228475 19.832691,99.999998 1.2200326e-6,100"
           transform="matrix(1.65028,-0.461669,0.461669,1.65028,242.62651,636.50062)"
           id="path3158"
           style="fill:none;stroke:#000080;stroke-width:1" />
        <path
           d="M 3.0661001e-7,-100 C 8.6328504,-99.999999 15.631158,-55.228473 15.631158,1.961531e-6 15.631158,55.228475 8.6328503,99.999998 5.3106051e-7,100"
           transform="matrix(1.7030877,-0.18988059,0.18988059,1.7030877,242.62651,636.50062)"
           id="path3160"
           style="fill:none;stroke:#000080;stroke-width:1" />
        <path
           d="m 15.681883,98.7637 c -10.2616164,1.62942 -21.1021464,1.62942 -31.363763,10e-7"
           transform="matrix(1.7136401,0,0,1.7136401,242.62651,636.50062)"
           id="path3164"
           style="fill:none;stroke:#000080;stroke-width:1" />
        <path
           d="m 50.483136,86.322501 c -27.344805,15.992319 -72.11422,16.241669 -99.995286,0.556949 -0.326797,-0.183843 -0.650474,-0.369501 -0.970986,-0.556949"
           transform="matrix(1.7136401,0,0,1.7136401,242.62651,636.50062)"
           id="path3166"
           style="fill:none;stroke:#000080;stroke-width:1" />
        <path
           d="M 69.650363,71.755838 C 46.919886,93.819981 -2.6903355,101.13716 -41.157169,88.099214 -52.906053,84.117048 -62.707816,78.494867 -69.650362,71.755838"
           transform="matrix(1.7136401,0,0,1.7136401,242.62651,636.50062)"
           id="path3168"
           style="fill:none;stroke:#000080;stroke-width:1" />
        <path
           d="M 83.23702,55.422364 C 65.680574,81.790497 14.181779,95.002614 -31.788758,84.932453 -55.477895,79.743185 -74.189987,69.01016 -83.237021,55.422363"
           transform="matrix(1.7136401,0,0,1.7136401,242.62651,636.50062)"
           id="path3170"
           style="fill:none;stroke:#000080;stroke-width:1" />
        <path
           d="M 92.61155,37.724237 C 80.661432,67.062032 29.510344,85.288399 -21.637603,78.433967 -56.869963,73.712413 -84.379919,57.933061 -92.611549,37.724239"
           transform="matrix(1.7136401,0,0,1.7136401,242.62651,636.50062)"
           id="path3172"
           style="fill:none;stroke:#000080;stroke-width:1" />
        <path
           d="M 98.159567,19.097233 C 92.110028,50.192526 43.258372,72.587304 -10.953659,69.11737 -56.828897,66.181046 -93.040335,45.410652 -98.159567,19.097232"
           transform="matrix(1.7136401,0,0,1.7136401,242.62651,636.50062)"
           id="path3174"
           style="fill:none;stroke:#000080;stroke-width:1" />
        <path
           d="M 100,0 C 100,31.678304 55.228475,57.358643 0,57.358643 -55.228475,57.358643 -100,31.678304 -100,0 c 0,-8.8734214e-7 0,-1.7746843e-6 0,-2.6620265e-6"
           transform="matrix(1.7136401,0,0,1.7136401,242.62651,636.50062)"
           id="path3176"
           style="fill:none;stroke:#000080;stroke-width:1" />
        <path
           d="M 98.159566,-19.097235 C 104.20911,11.998058 65.165693,40.018711 10.953662,43.488646 -43.25837,46.958581 -92.110026,24.563804 -98.159566,-6.5314883 c -0.812361,-4.1756217 -0.812361,-8.3901207 -10e-7,-12.5657427"
           transform="matrix(1.7136401,0,0,1.7136401,242.62651,636.50062)"
           id="path3178"
           style="fill:none;stroke:#000080;stroke-width:1" />
        <path
           d="M 92.61155,-37.724237 C 104.56167,-8.386442 72.785549,20.953155 21.637602,27.807586 -29.510344,34.662018 -80.661432,16.435651 -92.61155,-12.902144 c -3.325469,-8.164099 -3.325469,-16.657996 10e-7,-24.822095"
           transform="matrix(1.7136401,0,0,1.7136401,242.62651,636.50062)"
           id="path3180"
           style="fill:none;stroke:#000080;stroke-width:1" />
        <path
           d="M 83.237019,-55.422365 C 100.79347,-29.054233 77.759296,0.48484148 31.78876,10.555003 -14.181776,20.625165 -65.680572,7.4130489 -83.237019,-18.955084 c -7.81818,-11.74217 -7.818181,-24.725107 -2e-6,-36.467278"
           transform="matrix(1.7136401,0,0,1.7136401,242.62651,636.50062)"
           id="path3182"
           style="fill:none;stroke:#000080;stroke-width:1" />
        <path
           d="M 69.650364,-71.755837 C 92.380839,-49.691693 79.624,-21.235827 41.157166,-8.1978815 2.6903324,4.8400639 -46.919889,-2.4771158 -69.650364,-24.54126 c -15.001786,-14.562016 -15.001785,-32.652561 10e-7,-47.214578"
           transform="matrix(1.7136401,0,0,1.7136401,242.62651,636.50062)"
           id="path3184"
           style="fill:none;stroke:#000080;stroke-width:1" />
        <path
           d="m 50.483138,-86.3225 c 27.344804,15.992318 26.910077,41.671632 -0.97099,57.356354 -27.881068,15.684723 -72.650482,15.435367 -99.995286,-0.556951 -26.970052,-15.773147 -26.970054,-41.026252 -3e-6,-56.799401"
           transform="matrix(1.7136401,0,0,1.7136401,242.62651,636.50062)"
           id="path3186"
           style="fill:none;stroke:#000080;stroke-width:1" />
        <path
           d="m 15.681883,-98.7637 c 31.285816,4.967815 49.626962,23.542596 40.966098,41.487935 -8.660865,17.945339 -41.044048,28.4657 -72.329864,23.497885 -31.285816,-4.967815 -49.626962,-23.542597 -40.966098,-41.487935 5.510057,-11.416855 21.062001,-20.337349 40.966088,-23.497884"
           transform="matrix(1.7136401,0,0,1.7136401,242.62651,636.50062)"
           id="path3188"
           style="fill:none;stroke:#000080;stroke-width:1" />
        <path
           d="m 45.399052,-72.986984 c 0,14.38195 -20.325848,26.040825 -45.399052,26.040825 -25.073204,0 -45.399052,-11.658875 -45.399052,-26.040825 0,-14.381951 20.325848,-26.040825 45.399052,-26.040825 25.073204,0 45.399052,11.658874 45.399052,26.040825 z"
           transform="matrix(1.7136401,0,0,1.7136401,242.62651,636.50062)"
           id="path3190"
           style="fill:none;stroke:#000080;stroke-width:1" />
        <path
           d="m 30.901699,-77.905991 c 0,9.789516 -13.835162,17.725487 -30.901699,17.725487 -17.066537,0 -30.901699,-7.935971 -30.901699,-17.725487 0,-9.789516 13.835162,-17.725486 30.901699,-17.725486 17.066537,0 30.901699,7.93597 30.901699,17.725486 z"
           transform="matrix(1.7136401,0,0,1.7136401,242.62651,636.50062)"
           id="path3192"
           style="fill:none;stroke:#000080;stroke-width:1" />
        <path
           d="m 15.643447,-80.906693 c 0,4.956045 -7.0038098,8.973712 -15.643447,8.973712 -8.6396372,0 -15.643447,-4.017667 -15.643447,-8.973712 0,-4.956044 7.0038098,-8.973711 15.643447,-8.973711 8.6396372,0 15.643447,4.017667 15.643447,8.973711 z"
           transform="matrix(1.7136401,0,0,1.7136401,242.62651,636.50062)"
           id="path3194"
           style="fill:none;stroke:#000080;stroke-width:1" />
        <path
           d="M 100,0 C 100,55.228475 55.228475,100 0,100 -55.228475,100 -100,55.228475 -100,0 c 0,-55.228475 44.771525,-100 100,-100 55.228475,0 100,44.771525 100,100 z"
           transform="matrix(1.7136401,0,0,1.7136401,242.62651,636.50062)"
           id="path3196"
           style="fill:none;stroke:#000080;stroke-width:1" />
        <path
           d="m 411.42857,332.66592 c 0,92.31045 -74.51261,167.14286 -166.42857,167.14286 -91.91596,0 -166.428574,-74.83241 -166.428574,-167.14286 0,-92.31044 74.512614,-167.14285 166.428574,-167.14285 91.91596,0 166.42857,74.83241 166.42857,167.14285 z"
           transform="matrix(1.039236,0,0,1.0173735,-13.183689,298.15571)"
           clip-path="url(#clipPath3615)"
           id="path3575"
           style="fill:url(#linearGradient3463);fill-opacity:1;stroke:#000080;stroke-width:0.2;stroke-miterlimit:4" />
        <path
           d="m 411.42857,332.66592 c 0,92.31045 -74.51261,167.14286 -166.42857,167.14286 -91.91596,0 -166.428574,-74.83241 -166.428574,-167.14286 0,-92.31044 74.512614,-167.14285 166.428574,-167.14285 91.91596,0 166.42857,74.83241 166.42857,167.14285 z"
           transform="matrix(1.039236,0,0,1.0173735,-7.4693973,299.58428)"
           clip-path="url(#clipPath3611)"
           id="path3585"
           style="opacity:0.87999998;fill:url(#linearGradient3465);fill-opacity:1;stroke:#000080;stroke-width:0.2;stroke-miterlimit:4" />
        <path
           d="m 382.85715,419.80878 c 0,44.97176 -69.39587,81.42857 -155,81.42857 -85.60414,0 -155.000003,-36.45681 -155.000003,-81.42857 0,-44.97176 69.395863,-81.42858 155.000003,-81.42858 85.60413,0 155,36.45682 155,81.42858 z"
           transform="matrix(1.2542784,0,0,2.035532,-37.264122,-210.77959)"
           clip-path="url(#clipPath3607)"
           id="path3595"
           style="opacity:0.87999998;fill:url(#linearGradient3467);fill-opacity:1;stroke:none" />
        <path
           d="m 253.66166,560.86145 c -68.37395,0 -127.86324,34.73579 -158.654418,85.96875 -2.32153,8.91807 -3.57867,18.18612 -3.57867,27.6875 0,71.40253 69.080368,129.28125 154.290178,129.28125 85.20982,0 154.29018,-57.87872 154.29018,-129.28125 0,-26.40624 -9.47374,-50.97322 -25.69079,-71.4375 -32.02347,-26.24667 -74.297,-42.21875 -120.65648,-42.21875 z"
           id="path3627"
           style="opacity:0.87999998;fill:url(#linearGradient3416);fill-opacity:1;stroke:none" />
        <path
           d="m 382.85715,263.38019 c 0,33.53157 -59.48217,60.71428 -132.85715,60.71428 -73.37498,0 -132.85715,-27.18271 -132.85715,-60.71428 0,-33.53158 59.48217,-60.71429 132.85715,-60.71429 73.37498,0 132.85715,27.18271 132.85715,60.71429 z"
           transform="matrix(1.0430108,0,0,2.0470588,-5.0384021,53.207444)"
           id="path3644"
           style="opacity:0.87999998;fill:url(#linearGradient3469);fill-opacity:1;stroke:none;filter:url(#filter4462)" />
        <path
           d="m 414.28572,324.09448 c 0,97.8333 -77.39078,177.14286 -172.85715,177.14286 -95.46636,0 -172.857144,-79.30956 -172.857144,-177.14286 0,-97.83329 77.390784,-177.14285 172.857144,-177.14285 95.46637,0 172.85715,79.30956 172.85715,177.14285 z"
           transform="matrix(0.97520661,0,0,0.94758065,10.271547,328.82796)"
           id="path4496"
           style="opacity:0.33000004;fill:url(#linearGradient3471);fill-opacity:1;stroke:none" />
        <path
           d="m 414.28572,324.09448 c 0,97.8333 -77.39078,177.14286 -172.85715,177.14286 -95.46636,0 -172.857144,-79.30956 -172.857144,-177.14286 0,-97.83329 77.390784,-177.14285 172.857144,-177.14285 95.46637,0 172.85715,79.30956 172.85715,177.14285 z"
           transform="matrix(0.57024794,0,0,0.26612902,112.32586,673.53982)"
           id="path4547"
           style="opacity:0.22000002;fill:url(#radialGradient3473);fill-opacity:1;stroke:none" />
      </g>
    </g>
    <g
       transform="matrix(0.95037047,0,0,0.95037047,30.380906,41.080981)"
       id="flowRoot4600"
       style="font-size:64px;font-style:normal;font-weight:normal;line-height:125%;letter-spacing:0;word-spacing:0;fill:#000000;fill-opacity:1;stroke:none;font-family:Sans" />
  </g>
</svg>
