<?xml version="1.0" encoding="UTF-8" standalone="no"?>
<!-- Created with Inkscape (http://www.inkscape.org/) -->
<svg
   xmlns:svg="http://www.w3.org/2000/svg"
   xmlns="http://www.w3.org/2000/svg"
   xmlns:xlink="http://www.w3.org/1999/xlink"
   xmlns:sodipodi="http://sodipodi.sourceforge.net/DTD/sodipodi-0.dtd"
   xmlns:inkscape="http://www.inkscape.org/namespaces/inkscape"
   version="1.0"
   width="2198.3142"
   height="454.6207"
   id="svg2">
  <defs
     id="defs4">
    <linearGradient
       id="linearGradient5120">
      <stop
         id="stop5122"
         style="stop-color:#000000;stop-opacity:1"
         offset="0" />
      <stop
         id="stop5124"
         style="stop-color:#000000;stop-opacity:0"
         offset="1" />
    </linearGradient>
    <inkscape:perspective
       id="perspective10"
       inkscape:persp3d-origin="372.04724 : 350.78739 : 1"
       inkscape:vp_z="744.09448 : 526.18109 : 1"
       inkscape:vp_y="0 : 1000 : 0"
       inkscape:vp_x="0 : 526.18109 : 1"
       sodipodi:type="inkscape:persp3d" />
    <radialGradient
       cx="391.84164"
       cy="1186.6478"
       r="101.91104"
       fx="391.84164"
       fy="1186.6478"
       id="radialGradient5126"
       xlink:href="#linearGradient5120"
       gradientUnits="userSpaceOnUse"
       gradientTransform="matrix(1,0,0,0.4534767,0,648.53071)" />
  </defs>
  <g
     transform="translate(926.89589,-400.43361)"
     id="layer2" />
  <g
     transform="translate(926.89589,-400.43361)"
     id="layer1">
    <g
       transform="translate(134.28571,-402.85715)"
       id="g2322">
      <rect
         width="2108.5715"
         height="357.14282"
         x="-1002.8571"
         y="869.50507"
         id="rect2432"
         style="opacity:0.9;fill:#1a1a1a;fill-opacity:1;stroke:none" />
      <path
         d="M 877.14286,1155.2193 C 861.56486,1150.916 825.0237,1152.3621 800,1152.3621 C 760.86767,1152.3621 768.57143,1160.8752 768.57143,1198.0764 C 768.57143,1216.0166 763.06435,1226.6478 782.85714,1226.6478 C 802.85714,1226.6478 822.85714,1226.6478 842.85714,1226.6478 C 855.30136,1226.6479 870.77803,1216.9731 880,1212.3622 C 890.05247,1207.3359 880.28229,1163.0679 877.14286,1155.2193 z"
         id="path2476"
         style="fill:#808080;stroke:#000000;stroke-width:1px;stroke-linecap:butt;stroke-linejoin:miter;stroke-opacity:1" />
      <path
         d="M 285.71428,1063.7908 C 302.83596,1055.23 247.71404,1058.0765 228.57142,1058.0765 C 206.6535,1058.0765 208.57142,1079.3845 208.57142,1095.2194 C 208.57142,1117.536 219.84165,1123.7908 239.99999,1123.7908 C 253.54637,1123.7908 266.69628,1123.7908 285.71428,1120.9337 C 311.40813,1117.0736 283.71335,1091.2896 285.71428,1063.7908 L 285.71428,1063.7908 z"
         id="path2478"
         style="fill:#808080;stroke:#000000;stroke-width:1px;stroke-linecap:butt;stroke-linejoin:miter;stroke-opacity:1" />
      <path
         d="M 731.42857,1092.3623 C 746.78525,1092.3623 701.07097,1086.648 685.71428,1086.648 C 670.44743,1086.648 658.56052,1103.8127 654.28571,1112.3623 C 646.15219,1128.6293 651.31146,1146.5309 660,1155.2194 C 667.90476,1163.1242 692.39173,1149.7459 702.85714,1152.3623 C 719.01051,1156.4006 732.87004,1169.5051 751.42857,1169.5051 C 761.19161,1169.5051 765.71428,1138.7337 765.71428,1129.5051 C 765.71428,1113.4753 772.61102,1092.3622 754.28571,1092.3622 C 746.66667,1092.3622 739.04762,1092.3622 731.42857,1092.3622 L 731.42857,1092.3623 z"
         id="path2480"
         style="fill:#666666;stroke:#000000;stroke-width:1px;stroke-linecap:butt;stroke-linejoin:miter;stroke-opacity:1" />
      <path
         d="M -82.85714,1098.0765 C -88.549342,1098.0765 -121.04541,1084.958 -137.14285,1080.9336 C -151.2135,1077.416 -171.00173,1080.9336 -185.71428,1080.9336 C -192.9889,1080.9336 -209.94017,1093.0466 -220,1098.0765 C -223.80573,1099.9794 -203.90585,1131.0245 -202.85714,1135.2194 C -201.6221,1140.1595 -168.93866,1139.2296 -162.85714,1143.7908 C -150.54217,1153.027 -125.41699,1152.0649 -120,1146.6479 C -117.33228,1143.9802 -83.493724,1158.0765 -74.285714,1158.0765 C -57.808933,1158.0765 -62.857143,1130.3465 -62.857143,1118.0765 C -62.857143,1087.7823 -77.0292,1099.5335 -105.71429,1092.3622"
         id="path2482"
         style="fill:#666666;stroke:#000000;stroke-width:1px;stroke-linecap:butt;stroke-linejoin:miter;stroke-opacity:1" />
      <path
         d="M 111.7083,1092.3841 C 111.7083,1088.2571 108.59342,1127.2192 108.59342,1163.7899 C 108.59342,1181.8793 108.59342,1199.9688 108.59342,1218.0582 C 108.59342,1230.5949 140.11581,1226.6269 152.2018,1226.6269 C 175.14265,1226.6269 177.12088,1240.4004 177.12088,1209.4895 C 177.12088,1191.9929 174.00599,1178.0528 174.00599,1160.9336 C 174.00599,1142.8442 174.00599,1124.7547 174.00599,1106.6653 C 174.00599,1089.1699 156.58421,1095.2403 139.74226,1095.2403 C 129.08004,1095.2403 123.10977,1094.475 111.7083,1092.3841 L 111.7083,1092.3841 z"
         id="path2484"
         style="fill:#808080;stroke:#000000;stroke-width:1.04396427px;stroke-linecap:butt;stroke-linejoin:miter;stroke-opacity:1" />
      <path
         d="M 502.85714,1166.6479 C 496.20007,1166.6479 545.13969,1175.2193 582.85714,1175.2193 C 606.389,1175.2193 638.3882,1173.3878 657.14285,1178.0765 C 666.61479,1180.4444 651.49556,1232.2282 651.42857,1232.3622 C 647.73729,1239.7447 585.61379,1228.7656 577.14285,1226.6479 C 548.41842,1219.4668 516.21753,1231.4368 500,1215.2193 C 494.42703,1209.6463 501.57936,1173.0367 502.85714,1166.6479 L 502.85714,1166.6479 z"
         id="path2486"
         style="fill:#666666;stroke:#000000;stroke-width:1px;stroke-linecap:butt;stroke-linejoin:miter;stroke-opacity:1" />
      <path
         d="M 511.42858,1103.7908 C 491.12476,1083.487 568.81961,1107.6417 597.14286,1112.3622 C 610.41972,1114.575 596.68747,1160.3534 594.28572,1172.3622 C 593.55822,1175.9997 539.24871,1168.6029 531.42858,1166.6479 C 507.57991,1160.6857 488.64503,1177.7821 497.14286,1143.7908 C 498.32067,1139.0796 499.04762,1134.267 500,1129.5051 C 504.67381,1106.136 490.13847,1130.4034 511.42858,1103.7908 L 511.42858,1103.7908 z"
         id="path2488"
         style="fill:#999999;stroke:#000000;stroke-width:1px;stroke-linecap:butt;stroke-linejoin:miter;stroke-opacity:1" />
      <path
         d="M 665.71428,1160.9336 C 665.911,1159.95 660.51655,1191.5712 668.57143,1223.7907 C 672.73559,1240.4474 703.34334,1222.4837 720,1226.6479 C 741.01204,1231.9009 749.20681,1223.1553 757.14285,1215.2193 C 778.95922,1193.4029 757.82529,1158.0764 734.28571,1158.0764 C 710.67679,1158.0764 685.34704,1160.9335 665.71428,1160.9335 L 665.71428,1160.9336 z"
         id="path2490"
         style="fill:#666666;stroke:#000000;stroke-width:1px;stroke-linecap:butt;stroke-linejoin:miter;stroke-opacity:1" />
      <path
         d="M -223.84382,958.16526 C -258.06774,958.16526 -223.84382,1005.71 -223.84382,1029.4823 C -223.84382,1051.097 -234.15175,1070.4825 -207.41634,1075.1252 C -162.3276,1082.9551 -145.81329,1076.6805 -145.81329,1049.4511 C -145.81329,1022.8261 -149.92016,996.20109 -149.92016,969.57606 C -149.92016,945.74043 -168.94526,951.10922 -199.2026,955.31265 C -207.36794,956.44699 -215.63008,957.21443 -223.84383,958.16533 L -223.84382,958.16526 z"
         id="path2492"
         style="fill:#808080;stroke:#000000;stroke-width:1.19798172px;stroke-linecap:butt;stroke-linejoin:miter;stroke-opacity:1" />
      <path
         d="M 294.38387,1215.6738 C 285.95242,1218.1236 343.15184,1228.1135 388.57471,1228.1135 C 419.67985,1228.1135 456.27622,1232.2601 479.91128,1232.2601 C 480.68387,1232.2601 498.85478,1147.4257 491.32835,1149.3287 C 477.72521,1152.7682 416.73832,1141.0356 411.40886,1141.0356 C 389.52614,1141.0356 367.64342,1141.0356 345.7607,1141.0356 C 330.53794,1141.0356 315.31518,1141.0356 300.09241,1141.0356 C 286.22388,1141.0356 291.52961,1179.8809 291.52961,1194.941 C 291.52961,1201.9888 293.43246,1208.7629 294.38388,1215.6738 L 294.38387,1215.6738 z"
         id="path2494"
         style="fill:#999999;stroke:url(#radialGradient5126);stroke-width:1.20409214px;stroke-linecap:butt;stroke-linejoin:miter;stroke-opacity:1" />
      <path
         d="M 394.28572,1126.6479 C 394.28572,1143.2805 389.57828,1082.1105 405.71429,1078.0765 C 419.31985,1074.6751 453.69026,1083.7908 471.42858,1083.7908 C 502.12139,1083.7908 497.14286,1088.2526 497.14286,1118.0765 C 497.14286,1143.1617 495.94739,1140.9336 471.42858,1140.9336 C 453.33334,1140.9336 435.2381,1140.9336 417.14286,1140.9336 C 410.4762,1140.9336 403.80953,1140.9336 397.14286,1140.9336"
         id="path2496"
         style="fill:#b3b3b3;stroke:#000000;stroke-width:1px;stroke-linecap:butt;stroke-linejoin:miter;stroke-opacity:1" />
      <path
         d="M 37.142853,1069.505 C 33.005106,1069.505 31.428567,1110.4949 31.428567,1123.7907 C 31.428567,1125.4422 100.73959,1122.4999 108.57142,1120.9336 C 113.25787,1119.9963 106.38307,1060.7516 105.71428,1058.0765 C 105.27204,1056.3075 60.470522,1058.0765 57.142851,1058.0765 C 55.238089,1058.0765 53.333327,1058.0765 51.428565,1058.0765"
         id="path2498"
         style="fill:#b3b3b3;stroke:#000000;stroke-width:1px;stroke-linecap:butt;stroke-linejoin:miter;stroke-opacity:1" />
      <path
         d="M 605.71429,1072.3622 C 585.71429,1072.3622 605.71429,1112.3622 605.71429,1132.3622 C 605.71429,1147.5499 609.54155,1159.0466 617.14286,1166.6479 C 627.13411,1176.6392 648.57143,1165.1969 648.57143,1155.2193 C 648.57143,1136.9731 647.31389,1117.3924 651.42857,1100.9336 C 657.25142,1077.6422 647.05828,1078.0765 628.57143,1078.0765 C 617.53233,1078.0765 619.31636,1077.803 605.71429,1072.3622 z"
         id="path2500"
         style="fill:#b3b3b3;stroke:#000000;stroke-width:1px;stroke-linecap:butt;stroke-linejoin:miter;stroke-opacity:1" />
      <path
         d="M 31.428574,1132.3622 C 31.292385,1132.3622 28.571431,1192.3879 28.571431,1206.6479 C 28.571431,1227.9343 34.52184,1223.7908 54.285717,1223.7908 C 67.709931,1223.7908 81.026529,1230.677 97.14286,1226.6479 C 111.7086,1223.0065 105.58201,1187.177 108.57143,1175.2193 C 111.3804,1163.9834 114.28571,1182.5578 114.28571,1152.3622 C 114.28571,1150.1213 105.71428,1156.0725 105.71428,1138.0764 C 105.71428,1117.1241 78.095233,1132.3622 57.142852,1132.3622 C 48.571424,1132.3622 39.999995,1132.3622 31.428566,1132.3622 L 31.428574,1132.3622 z"
         id="path2502"
         style="fill:#999999;stroke:#000000;stroke-width:1px;stroke-linecap:butt;stroke-linejoin:miter;stroke-opacity:1" />
      <path
         d="M 186.01887,1120.94 C 159.63377,1120.94 186.01887,1172.3625 186.01887,1198.0737 C 186.01887,1240.3892 187.5538,1230.6777 229.99403,1223.785 C 274.73418,1216.5187 285.69589,1238.0858 285.69589,1178.0761 C 285.69589,1129.4181 294.20354,1113.1538 238.78906,1126.6536 C 215.85223,1132.2414 206.00111,1130.676 186.01887,1120.94 z"
         id="path2504"
         style="fill:#666666;stroke:#000000;stroke-width:1.01289964px;stroke-linecap:butt;stroke-linejoin:miter;stroke-opacity:1" />
      <path
         d="M 23.297144,1229.1738 C 29.953844,1227.5096 21.052344,1151.1469 14.725644,1140.6024 C 5.825144,1125.7681 -60.269606,1120.5835 -68.131466,1152.0309 C -72.526746,1169.6121 -106.93789,1246.0183 -73.845746,1237.7452 C -41.746339,1229.7204 -8.961809,1235.6256 23.297111,1229.1738 L 23.297144,1229.1738 z"
         id="path2506"
         style="fill:#808080;stroke:#000000;stroke-width:1px;stroke-linecap:butt;stroke-linejoin:miter;stroke-opacity:1" />
      <path
         d="M -291.42857,1052.3622 C -293.43353,1052.8634 -291.42857,1123.2328 -291.42857,1138.0765 C -291.42857,1167.262 -275.52357,1158.0765 -248.57143,1158.0765 C -202.25712,1158.0765 -220,1150.475 -220,1109.5051 C -220,1085.8147 -221.1637,1044.3205 -228.57143,1029.5051 C -233.24147,1020.165 -278.9423,1034.6905 -285.71429,1038.0765"
         id="path2508"
         style="fill:#999999;stroke:#000000;stroke-width:1px;stroke-linecap:butt;stroke-linejoin:miter;stroke-opacity:1" />
      <path
         d="M -140,998.07647 C -142.59501,992.88644 -142.85714,1037.751 -142.85714,1075.2193 C -142.85714,1081.9015 -54.285714,1105.6393 -54.285714,1072.3622 C -54.285714,1048.9908 -27.028334,995.21933 -57.142857,995.21933 C -84.54138,995.21933 -113.05859,992.68819 -140,998.07647 L -140,998.07647 z"
         id="path2510"
         style="fill:#808080;stroke:#000000;stroke-width:1px;stroke-linecap:butt;stroke-linejoin:miter;stroke-opacity:1" />
      <path
         d="M 302.85715,1058.0765 C 279.04763,1058.0765 302.85715,1105.6955 302.85715,1129.5051 C 302.85715,1147.3207 366.7105,1138.0765 382.85715,1138.0765 C 384.03976,1138.0765 383.89742,1098.5894 388.57144,1075.2194 C 396.2963,1036.595 371.02487,1046.7286 342.85715,1052.3622 C 327.28894,1055.4758 318.86675,1051.6726 302.85715,1058.0765 L 302.85715,1058.0765 z"
         id="path2512"
         style="fill:#b3b3b3;stroke:#000000;stroke-width:1px;stroke-linecap:butt;stroke-linejoin:miter;stroke-opacity:1" />
      <path
         d="M -200,1166.6479 C -200.97627,1166.8432 -200,1220.3971 -200,1232.3622 C -200,1243.2641 -154.63348,1238.0765 -145.71429,1238.0765 C -112.35189,1238.0765 -95.076021,1247.7423 -88.571429,1215.2193 C -83.677276,1190.7485 -69.2975,1149.505 -100,1149.505 C -130.44434,1149.505 -166.15995,1145.3307 -194.28571,1152.3621"
         id="path2514"
         style="fill:#b3b3b3;stroke:#000000;stroke-width:1px;stroke-linecap:butt;stroke-linejoin:miter;stroke-opacity:1" />
      <path
         d="M -52.340882,1113.2527 C -59.358494,1136.9994 -21.287524,1122.4296 2.45916,1129.4472 C 36.170603,1139.4096 26.713714,1129.9376 27.806142,1104.1655 C 28.915576,1077.9913 35.633606,1076.6858 5.763323,1067.8585 C -10.987795,1062.9083 -43.724922,1043.7712 -49.535615,1063.4338 C -54.664632,1080.7897 -59.393569,1090.4959 -52.340924,1113.2527 L -52.340882,1113.2527 z"
         id="path2516"
         style="fill:#cccccc;stroke:#000000;stroke-width:1px;stroke-linecap:butt;stroke-linejoin:miter;stroke-opacity:1" />
      <path
         d="M -282.85714,1163.7908 C -286.86429,1174.3192 -285.71428,1197.4739 -285.71428,1220.9337 C -285.71428,1244.8193 -237.70746,1221.9636 -214.28571,1226.6479 C -198.92046,1229.721 -202.85714,1184.4998 -202.85714,1166.6479 C -202.85714,1150.5195 -267.84921,1169.9384 -282.85714,1160.9337 L -282.85714,1163.7908 z"
         id="path2520"
         style="fill:#666666;stroke:#000000;stroke-width:1px;stroke-linecap:butt;stroke-linejoin:miter;stroke-opacity:1" />
      <path
         d="M -357.14285,1160.9336 C -357.14285,1136.4831 -367.69882,1235.2193 -345.71428,1235.2193 C -292.34924,1235.2193 -288.57142,1242.1332 -288.57142,1192.3622 C -288.57142,1160.1701 -279.34456,1146.6479 -311.42857,1146.6479 C -322.85714,1146.6479 -334.28571,1146.6479 -345.71428,1146.6479"
         id="path2522"
         style="fill:#808080;stroke:#000000;stroke-width:1px;stroke-linecap:butt;stroke-linejoin:miter;stroke-opacity:1" />
      <path
         d="M -442.85715,1126.6479 C -443.41175,1126.6479 -448.47268,1189.11 -457.14286,1223.7908 C -459.9391,1234.9757 -362.85715,1241.3269 -362.85715,1215.2193 C -362.85715,1182.5843 -349.8609,1125.3584 -368.57144,1106.6479 C -376.17956,1099.0398 -422.32352,1110.8002 -428.57144,1112.3622"
         id="path2524"
         style="fill:#808080;stroke:#000000;stroke-width:1px;stroke-linecap:butt;stroke-linejoin:miter;stroke-opacity:1" />
      <path
         d="M -551.42857,1172.3622 C -557.60514,1166.1856 -545.71428,1206.3645 -545.71428,1240.9336 C -545.71428,1241.0547 -479.04,1232.1222 -468.57143,1229.5051 C -449.72353,1224.7931 -458.33769,1178.3363 -457.14286,1172.3622 C -452.64466,1149.8712 -494.89131,1158.2279 -517.14285,1163.7908 C -527.79053,1166.4527 -539.99652,1167.7894 -551.42857,1172.3622 L -551.42857,1172.3622 z"
         id="path2526"
         style="fill:#999999;stroke:#000000;stroke-width:1px;stroke-linecap:butt;stroke-linejoin:miter;stroke-opacity:1" />
      <path
         d="M 891.42857,1152.3622 C 884.03851,1154.2097 889.01368,1219.8455 891.42858,1229.5051 C 891.43432,1229.528 965.41631,1223.7908 997.14286,1223.7908 C 1000.9524,1223.7908 990.47619,1223.7908 994.28571,1223.7908 C 1014.3084,1223.7908 1005.7143,1183.8134 1005.7143,1163.7908 C 1005.7143,1131.9013 981.00892,1143.7908 951.42857,1143.7908 C 928.02028,1143.7908 912.56484,1141.7941 891.42857,1152.3622 L 891.42857,1152.3622 z"
         id="path2528"
         style="fill:#999999;stroke:#000000;stroke-width:1px;stroke-linecap:butt;stroke-linejoin:miter;stroke-opacity:1" />
      <path
         d="M -640,1186.6479 C -656.87623,1186.6479 -642.59052,1235.2193 -625.71429,1235.2193 C -604.92601,1235.2193 -562.40206,1244.8276 -557.14286,1223.7908 C -551.41458,1200.8776 -546.00202,1178.0765 -565.71429,1178.0765 C -591.37443,1178.0765 -617.80246,1173.3294 -640,1186.6479 L -640,1186.6479 z"
         id="path2530"
         style="fill:#999999;stroke:#000000;stroke-width:1px;stroke-linecap:butt;stroke-linejoin:miter;stroke-opacity:1" />
      <path
         d="M -354.28571,1083.7907 C -364.0605,1083.7907 -353.19845,1142.2231 -351.42857,1146.6478 C -349.16116,1152.3164 -311.00429,1140.9336 -305.71428,1140.9336 C -290.54075,1140.9336 -298.68908,1087.068 -300,1083.7907 C -307.16198,1065.8857 -335.37595,1080.0087 -354.28571,1083.7907 L -354.28571,1083.7907 z"
         id="path2532"
         style="fill:#999999;stroke:#000000;stroke-width:1px;stroke-linecap:butt;stroke-linejoin:miter;stroke-opacity:1" />
      <path
         d="M 27.460302,944.14061 C 10.071155,933.43374 -33.575124,932.5506 -68.865591,932.47253 C -94.752315,932.41527 -150.49869,920.88508 -149.02229,940.88646 C -147.48295,961.74062 -154.61227,979.3234 -131.16173,983.88221 C -92.497012,991.39868 -34.227525,995.55163 5.559657,995.63964 C 29.647892,995.69292 34.460818,979.03543 39.534353,958.48605 C 40.866852,953.08906 31.484992,948.92242 27.460305,944.14061 L 27.460302,944.14061 z"
         id="path2582"
         style="fill:#808080;stroke:#000000;stroke-width:1.13502538px;stroke-linecap:butt;stroke-linejoin:miter;stroke-opacity:1" />
      <path
         d="M 94.285714,1012.3622 C 81.369354,1001.7184 47.45676,1000.9336 20,1000.9336 C -0.140434,1000.9336 -42.857143,989.55305 -42.857143,1009.505 C -42.857143,1030.3076 -49.414735,1047.8656 -31.428572,1052.3621 C -1.773386,1059.7759 43.330424,1063.7907 74.285718,1063.7907 C 93.026895,1063.7907 97.728855,1047.161 102.85715,1026.6479 C 104.20402,1021.2604 97.142857,1017.1241 94.285718,1012.3622 L 94.285714,1012.3622 z"
         id="path2584"
         style="fill:#808080;stroke:#000000;stroke-width:1px;stroke-linecap:butt;stroke-linejoin:miter;stroke-opacity:1" />
      <path
         d="M -437.14285,918.07647 C -450.05921,907.43268 -483.9718,906.6479 -511.42856,906.6479 C -531.569,906.6479 -574.28571,895.26733 -574.28571,915.21933 C -574.28571,936.02197 -580.8433,953.57993 -562.85714,958.07647 C -533.20195,965.49026 -488.09814,969.50504 -457.14285,969.50504 C -438.40167,969.50504 -433.69971,952.87535 -428.57142,932.36218 C -427.22455,926.9747 -434.28571,922.83837 -437.14285,918.07647 L -437.14285,918.07647 z"
         id="path2586"
         style="fill:#808080;stroke:#000000;stroke-width:1px;stroke-linecap:butt;stroke-linejoin:miter;stroke-opacity:1" />
      <path
         d="M 447.65885,1063.9855 C 456.51511,1049.7838 452.84164,1016.0616 449.2376,988.84239 C 446.59391,968.87621 452.2689,925.03526 432.48953,927.65421 C 411.86689,930.38483 393.60008,926.18868 391.50335,944.60944 C 388.04633,974.9812 389.98673,1020.2217 394.05001,1050.9092 C 396.51003,1069.4882 413.61302,1071.9666 434.62185,1074.358 C 440.13952,1074.986 443.31319,1067.443 447.65885,1063.9855 z"
         id="path2588"
         style="fill:#808080;stroke:#000000;stroke-width:1px;stroke-linecap:butt;stroke-linejoin:miter;stroke-opacity:1" />
      <path
         d="M 591.42857,1043.7908 C 578.51221,1033.147 544.59962,1032.3622 517.14286,1032.3622 C 497.00243,1032.3622 454.28572,1020.9816 454.28572,1040.9336 C 454.28572,1061.7363 447.72813,1079.2942 465.71429,1083.7908 C 495.36947,1091.2046 540.47328,1095.2193 571.42858,1095.2193 C 590.16976,1095.2193 594.87171,1078.5897 600.00001,1058.0765 C 601.34688,1052.689 594.28572,1048.5527 591.42858,1043.7908 L 591.42857,1043.7908 z"
         id="path2534"
         style="fill:#808080;stroke:#000000;stroke-width:1px;stroke-linecap:butt;stroke-linejoin:miter;stroke-opacity:1" />
      <path
         d="M 599.84082,923.44473 C 612.1931,927.29078 594.59048,952.81657 595.45163,1009.1986 C 595.79624,1031.7609 596.06931,1048.1648 601.98002,1063.5037 C 610.31635,1085.1374 646.87643,1064.6572 650.39999,1062.1238 C 651.84851,1061.0824 652.32559,1001.6355 652.23805,995.90373 C 652.17065,991.49087 645.81342,929.76363 631.40908,938.114 L 599.84082,923.44473 z"
         id="path2536"
         style="fill:#666666;stroke:#000000;stroke-width:1.16534519px;stroke-linecap:butt;stroke-linejoin:miter;stroke-opacity:1" />
      <path
         d="M 1015.2663,1006.6177 C 1018.0982,1006.6177 1010.7382,1063.2402 1020.3041,1106.6607 C 1033.3181,1165.7328 1022.5584,1143.8195 992.59634,1143.8195 C 965.37657,1143.8195 964.88861,1139.9728 964.88861,1106.6607 C 964.88861,1099.9912 964.88861,1093.3216 964.88861,1086.6521 C 964.88861,1062.455 962.36973,1037.0846 962.36973,1012.3344 C 962.36973,1003.8245 994.67474,1006.6177 1002.6719,1006.6177 C 1006.87,1006.6177 1011.0682,1006.6177 1015.2663,1006.6177 L 1015.2663,1006.6177 z"
         id="path2538"
         style="fill:#808080;stroke:#000000;stroke-width:0.93914247px;stroke-linecap:butt;stroke-linejoin:miter;stroke-opacity:1" />
      <path
         d="M 174.28571,880.93361 C 152.36025,880.93361 177.14285,924.72244 177.14285,946.6479 C 177.14285,986.99287 222.14438,969.50504 257.14285,969.50504 C 267.55755,969.50504 280.01953,909.40738 282.85714,895.21933 C 286.36678,877.67111 223.744,886.64789 205.71428,886.64789 C 192.60464,886.64789 188.66744,885.72751 174.28571,880.9336 L 174.28571,880.93361 z"
         id="path2540"
         style="fill:#999999;stroke:#000000;stroke-width:1px;stroke-linecap:butt;stroke-linejoin:miter;stroke-opacity:1" />
      <path
         d="M -373.1125,955.94659 C -398.57694,956.49706 -373.10615,1003.6397 -373.10299,1027.4862 C -373.09521,1086.0288 -374.05381,1093.1104 -321.14944,1072.1485 C -288.68055,1059.2836 -281.68572,1042.1983 -302.82416,1003.0742 C -312.1972,985.72607 -304.21498,968.16034 -318.10892,957.61915 C -320.27845,955.97314 -370.82434,957.1827 -373.1125,955.94659 L -373.1125,955.94659 z"
         id="path2542"
         style="fill:#808080;stroke:#000000;stroke-width:1.0349741px;stroke-linecap:butt;stroke-linejoin:miter;stroke-opacity:1" />
      <path
         d="M -637.40199,1072.0295 C -640.88791,1068.8042 -640.19207,1125.8023 -642.87977,1177.6018 C -643.94507,1198.1332 -602.75159,1165.379 -582.22013,1166.4443 C -548.92238,1168.172 -519.79598,1176.419 -518.26305,1146.8749 C -516.3585,1110.1689 -495.61629,1065.0813 -533.94278,1063.0927 C -560.71708,1061.7035 -591.73707,1056.7437 -616.83666,1061.6526 C -634.21797,1065.052 -603.11654,1047.4023 -637.40199,1072.0295 L -637.40199,1072.0295 z"
         id="path2544"
         style="fill:#4d4d4d;stroke:#000000;stroke-width:1px;stroke-linecap:butt;stroke-linejoin:miter;stroke-opacity:1" />
      <path
         d="M 868.57143,1040.9336 C 866.34972,1041.489 868.57143,1117.3463 868.57143,1132.3622 C 868.57143,1162.6365 882.83666,1148.9377 908.57143,1143.7907 C 921.63165,1141.1787 938.06013,1143.7907 951.42857,1143.7907 C 965.62837,1143.7908 960,1042.8764 960,1029.505 C 960,1016.4139 887.03298,1024.1753 877.14286,1026.6479 C 866.01602,1029.4296 873.22052,1017.6881 868.57143,1040.9336 L 868.57143,1040.9336 z"
         id="path2546"
         style="fill:#b3b3b3;stroke:#000000;stroke-width:1px;stroke-linecap:butt;stroke-linejoin:miter;stroke-opacity:1" />
      <path
         d="M 781.37311,1055.2423 C 770.6925,1057.6807 765.73726,1110.3864 765.73726,1138.0592 C 765.73726,1149.1872 845.85372,1151.0592 850.17091,1149.4822 C 855.27394,1147.6182 869.43136,1085.6168 862.6796,1060.9537 C 862.20898,1059.2346 814.50865,1060.9537 809.51767,1060.9537 C 789.94965,1060.9537 793.65763,1069.3163 784.50029,1060.9537"
         id="path2548"
         style="fill:#b3b3b3;stroke:#000000;stroke-width:1.04593492px;stroke-linecap:butt;stroke-linejoin:miter;stroke-opacity:1" />
      <path
         d="M -722.85715,1120.9336 C -745.71429,1120.9336 -722.85715,1166.6479 -722.85715,1189.505 C -722.85715,1250.2925 -717.7918,1249.6673 -660.00001,1235.2193 C -642.13515,1230.7531 -646.13658,1145.9022 -642.85715,1129.505 C -640.9481,1119.9598 -697.16042,1123.7907 -708.57144,1123.7907 C -713.42765,1123.7907 -718.09525,1121.886 -722.85715,1120.9336 L -722.85715,1120.9336 z"
         id="path2550"
         style="fill:#b3b3b3;stroke:#000000;stroke-width:1px;stroke-linecap:butt;stroke-linejoin:miter;stroke-opacity:1" />
      <path
         d="M -710.41088,1032.2093 C -733.78304,1027.6667 -719.49617,1078.9536 -724.03881,1102.3258 C -727.73985,1121.3678 -667.6492,1113.2265 -653.37722,1113.1491 C -635.82325,1113.0538 -641.94471,1037.1959 -643.72325,1033.5284 C -650.63159,1019.2828 -701.38413,1027.478 -710.41088,1032.2093 L -710.41088,1032.2093 z"
         id="path2552"
         style="fill:#4d4d4d;stroke:#000000;stroke-width:1px;stroke-linecap:butt;stroke-linejoin:miter;stroke-opacity:1" />
      <path
         d="M 39.954814,913.56968 C 39.865347,913.4742 39.954814,947.06249 39.954814,982.33493 C 39.954814,1005.4654 43.717656,998.38015 68.590908,998.38015 C 91.301026,998.38015 80.045345,925.91368 80.045345,915.86186 C 80.045345,887.69686 91.835178,872.31053 57.13647,872.31053 C 39.37192,872.31053 39.956924,913.55955 37.091204,927.32273"
         id="path2554"
         style="fill:#666666;stroke:#000000;stroke-width:0.89670336px;stroke-linecap:butt;stroke-linejoin:miter;stroke-opacity:1" />
      <path
         d="M 955.14815,809.71257 C 904.20129,809.71257 955.14815,857.14466 955.14815,880.8607 C 955.14815,911.21378 931.42532,920.70366 991.82989,920.70366 C 1032.2388,920.70366 1034.6253,852.50151 1034.6253,838.17182 C 1034.6253,809.97766 1058.9476,804.02072 991.82989,804.02072 C 978.94124,804.02072 967.3754,807.81529 955.14815,809.71257 L 955.14815,809.71257 z"
         id="path2556"
         style="fill:#4d4d4d;stroke:#000000;stroke-width:1.45992017px;stroke-linecap:butt;stroke-linejoin:miter;stroke-opacity:1" />
      <path
         d="M -633.52744,972.3741 C -658.89042,972.3741 -636.571,997.12832 -636.571,1020.9304 C -636.571,1064.4413 -629.36102,1060.918 -584.83052,1060.918 C -546.44767,1060.918 -508.74159,1071.4549 -508.74159,1032.3555 C -508.74159,942.18747 -483.33333,960.94907 -593.96119,960.94907 C -619.61621,960.94907 -606.2116,981.47122 -627.44032,969.51784 L -633.52744,972.3741 z"
         id="path2558"
         style="fill:#808080;stroke:#000000;stroke-width:1.0319469px;stroke-linecap:butt;stroke-linejoin:miter;stroke-opacity:1" />
      <path
         d="M 451.14604,878.12162 C 419.75644,878.12162 451.14604,929.5169 451.14604,955.21454 C 451.14604,1055.3669 462.921,1023.7416 580.1922,1023.7416 C 601.35314,1023.7416 592.53929,938.90596 594.14313,912.38515 C 597.59351,855.33024 552.91969,895.25339 541.82713,883.83221 C 516.4681,857.72194 490.08116,867.49665 451.14605,878.12162 L 451.14604,878.12162 z"
         id="path2560"
         style="fill:#666666;stroke:#000000;stroke-width:1.10449839px;stroke-linecap:butt;stroke-linejoin:miter;stroke-opacity:1" />
      <path
         d="M 111.42859,998.07648 C 86.666685,998.07648 111.42859,1047.6003 111.42859,1072.3622 C 111.42859,1105.1824 128.62701,1096.634 157.14288,1089.5051 C 160.9524,1088.5527 164.76192,1087.6003 168.57144,1086.6479 C 201.20865,1078.4886 201.11074,1097.6014 214.28573,1058.0765 C 222.3137,1033.9926 223.82112,987.6466 220.00001,972.36219 C 218.75171,967.36898 148.37029,973.12677 140.00001,975.21933 C 115.00529,981.46801 109.12874,998.53645 97.14287,1000.9336"
         id="path2562"
         style="fill:#666666;stroke:#000000;stroke-width:1px;stroke-linecap:butt;stroke-linejoin:miter;stroke-opacity:1" />
      <path
         d="M -502.85714,980.93361 C -506.53735,981.85366 -508.57143,1074.4347 -508.57143,1092.3622 C -508.57143,1108.9675 -412.49355,1098.0765 -394.28572,1098.0765 C -365.70104,1098.0765 -382.85714,1052.254 -382.85714,1032.3622 C -382.85714,1012.3622 -382.85714,992.36218 -382.85714,972.36218 C -382.85714,949.50504 -428.57143,972.36218 -451.42857,972.36218 C -467.61905,972.36218 -483.80953,972.36218 -500,972.36218 C -512.69842,972.36218 -502.53969,972.36218 -500,972.36218"
         id="path2564"
         style="fill:#b3b3b3;stroke:#000000;stroke-width:1px;stroke-linecap:butt;stroke-linejoin:miter;stroke-opacity:1" />
      <path
         d="M 292.93754,889.48711 C 270.19007,889.48711 292.93754,940.94569 292.93754,966.67498 C 292.93754,976.29176 367.49193,966.67498 381.39992,966.67498 C 382.75488,966.67498 404.34752,869.47544 381.39992,869.47544 C 354.45566,869.47544 330.02498,878.05187 303.04753,878.05187"
         id="path2566"
         style="fill:#cccccc;stroke:#000000;stroke-width:0.94081885px;stroke-linecap:butt;stroke-linejoin:miter;stroke-opacity:1" />
      <path
         d="M -506.28613,1109.4747 C -515.26152,1109.4747 -501.38182,1149.6004 -499.01185,1152.3972 C -492.12967,1160.519 -461.34334,1147.3396 -455.36619,1143.8127 C -435.27702,1131.9589 -450.14256,1103.7517 -465.06523,1103.7517 C -480.82462,1103.7517 -490.99956,1105.8667 -506.28613,1109.4747 L -506.28613,1109.4747 z"
         id="path2568"
         style="fill:#808080;stroke:#000000;stroke-width:0.921933px;stroke-linecap:butt;stroke-linejoin:miter;stroke-opacity:1" />
      <path
         d="M 768.57143,995.21932 C 767.66184,995.21932 767.92118,1044.0469 771.42857,1058.0765 C 774.44829,1070.1553 855.11531,1054.3897 860,1049.505 C 871.35558,1038.1494 882.59461,969.505 848.57143,969.505 C 822.85714,969.505 797.14286,969.505 771.42857,969.505"
         id="path2570"
         style="fill:#b3b3b3;stroke:#000000;stroke-width:1px;stroke-linecap:butt;stroke-linejoin:miter;stroke-opacity:1" />
      <path
         d="M 868.57143,935.21933 C 842.85714,935.21933 868.57143,963.79076 868.57143,989.50504 C 868.57143,1022.8995 947.71271,1006.6479 977.14286,1006.6479 C 1023.1865,1006.6479 1014.2857,992.1746 1014.2857,938.07647 C 1014.2857,922.35438 940.84321,929.50504 922.85715,929.50504 C 905.71429,929.50504 888.57143,929.50504 871.42857,929.50504"
         id="path2572"
         style="fill:#b3b3b3;stroke:#000000;stroke-width:1px;stroke-linecap:butt;stroke-linejoin:miter;stroke-opacity:1" />
      <path
         d="M 235.30414,972.38472 C 207.18614,972.38472 238.42622,1023.7693 238.42622,1049.488 C 238.42622,1074.9391 338.31034,1047.0432 363.30947,1043.7766 C 367.43041,1043.2381 371.63502,1043.7766 375.7978,1043.7766 C 402.0018,1043.7766 392.63555,972.38472 366.43155,972.38472 C 336.25143,972.38472 306.07132,972.38472 275.8912,972.38472 C 268.23381,972.38472 261.21443,973.59907 254.03663,975.2404"
         id="path2574"
         style="fill:#b3b3b3;stroke:#000000;stroke-width:1.04506803px;stroke-linecap:butt;stroke-linejoin:miter;stroke-opacity:1" />
      <path
         d="M 659.35984,1009.5015 C 658.41849,1009.5015 659.89626,1057.5922 651.37964,1089.6803 C 650.40457,1093.3541 723.21322,1084.6692 736.50177,1084.6692 C 764.08893,1084.6692 765.7625,1019.5982 765.7625,999.47915 C 765.7625,976.92885 717.8813,999.47915 693.94071,999.47915 C 681.88044,999.47915 670.8868,1006.1607 659.35985,1009.5015 L 659.35984,1009.5015 z"
         id="path2576"
         style="fill:#666666;stroke:#000000;stroke-width:0.90358531px;stroke-linecap:butt;stroke-linejoin:miter;stroke-opacity:1" />
      <path
         d="M 1096.0713,806.81439 C 1086.9369,806.81439 1067.8097,812.38933 1054.1767,824.12479 C 1046.1596,831.02591 1037.1398,856.94201 1029.0398,867.40081 C 1019.1739,880.13989 1022.8037,921.90822 1020.1665,971.26324 C 1017.1998,1026.7874 1028.8153,1070.9843 1025.8808,1121.2588 C 1022.808,1173.9026 1018.4704,1239.5745 1034.0673,1239.5745 C 1047.8729,1239.5745 1063.3607,1247.1902 1075.9619,1230.9193 C 1083.6734,1220.962 1120.6442,1230.8356 1128.4887,1230.8356 C 1138.8687,1230.8356 1131.7359,1088.8126 1134.8068,1049.1601 C 1140.027,981.75705 1131.2628,929.30617 1131.2628,858.74567 C 1131.2628,827.61671 1124.2736,810.0067 1118.7359,810.0067 C 1115.1592,810.0067 1098.8642,818.35473 1096.0713,806.81446 L 1096.0713,806.81439 z"
         id="path2580"
         style="fill:#666666;stroke:#000000;stroke-width:1.33295608px;stroke-linecap:butt;stroke-linejoin:miter;stroke-opacity:1" />
      <path
         d="M 752.8815,898.09188 C 714.54842,908.39241 672.9873,903.46337 634.3348,909.51661 C 630.8288,910.06567 644.95376,955.10363 646.49344,963.78407 C 652.21899,996.06378 664.44325,989.48972 698.16764,989.48972 C 749.65674,989.48972 762.68154,1000.5709 774.15912,946.64698 C 777.95221,928.8263 775.39161,917.00518 771.11946,900.94806 C 769.62467,895.32981 759.04468,898.09188 752.8815,898.09188 L 752.8815,898.09188 z"
         id="path2590"
         style="fill:#999999;stroke:#000000;stroke-width:1.03127253px;stroke-linecap:butt;stroke-linejoin:miter;stroke-opacity:1" />
      <path
         d="M 864.75947,922.31052 C 858.90952,925.55548 912.67334,923.37963 955.98169,917.06388 C 970.65783,914.92365 949.72431,870.47066 941.95274,850.62962 C 930.60636,821.66202 836.70931,835.44012 827.11279,843.20751 C 824.54375,845.28687 839.19502,919.89597 839.78091,929.98144 C 841.37885,957.48872 859.94225,929.66017 864.75947,922.31052 z"
         id="path2592"
         style="fill:#b3b3b3;stroke:#000000;stroke-width:1.11536622px;stroke-linecap:butt;stroke-linejoin:miter;stroke-opacity:1" />
      <path
         d="M 174.29907,1129.4882 C 160.57575,1129.4882 208.55452,1119.7303 208.55452,1105.0368 C 208.55452,1081.3764 206.62859,1086.6983 182.86292,1086.6983 C 163.8497,1086.6983 171.14562,1112.6064 174.29906,1129.4882 L 174.29907,1129.4882 z"
         id="path2594"
         style="fill:#666666;stroke:#000000;stroke-width:1.03382945px;stroke-linecap:butt;stroke-linejoin:miter;stroke-opacity:1" />
      <path
         d="M -251.42857,975.21933 C -266.34575,975.21933 -286.8849,980.09035 -300,986.6479 C -313.4687,993.38225 -296.36223,1018.8571 -285.71429,1029.505 C -277.25637,1037.963 -247.34791,1024.6076 -245.71429,1023.7908 C -231.08077,1016.474 -233.22188,975.21933 -251.42857,975.21933 L -251.42857,975.21933 z"
         id="path2596"
         style="fill:#808080;stroke:#000000;stroke-width:1px;stroke-linecap:butt;stroke-linejoin:miter;stroke-opacity:1" />
      <path
         d="M -413.99188,964.81362 C -420.37149,950.68338 -379.36208,968.5774 -367.97437,958.0568 C -343.93713,935.84985 -393.7279,925.58433 -403.84524,925.18389 C -427.92459,924.23085 -428.97717,926.86537 -424.73355,947.23219 C -423.33268,953.95551 -417.57244,958.95314 -413.99189,964.81361 L -413.99188,964.81362 z"
         id="path2630"
         style="fill:#4d4d4d;stroke:#000000;stroke-width:1px;stroke-linecap:butt;stroke-linejoin:miter;stroke-opacity:1" />
      <path
         d="M -751.27536,1027.2509 C -764.56459,1004.2884 -679.13876,1033.3672 -655.41727,1016.2705 C -605.34579,980.18296 -709.06388,963.50088 -730.13911,962.85015 C -780.2983,961.3014 -782.49089,965.58266 -773.65111,998.67997 C -770.73298,1009.6058 -758.73395,1017.7272 -751.27538,1027.2508 L -751.27536,1027.2509 z"
         id="path2632"
         style="fill:#808080;stroke:#000000;stroke-width:1.83987212px;stroke-linecap:butt;stroke-linejoin:miter;stroke-opacity:1" />
      <path
         d="M 386.11892,874.18552 C 405.25512,867.54457 381.02172,910.23391 395.26949,922.0881 C 425.34379,947.11003 439.24611,895.27961 439.7884,884.74782 C 441.07908,859.68207 437.51122,858.58637 409.92897,863.00382 C 400.82376,864.46209 394.05562,870.45829 386.11892,874.18552 z"
         id="path2634"
         style="fill:#808080;stroke:#000000;stroke-width:1.18732917px;stroke-linecap:butt;stroke-linejoin:miter;stroke-opacity:1" />
      <path
         d="M 792.37109,973.23261 C 785.74166,950.08016 828.35703,979.3996 840.19069,962.16154 C 865.16926,925.77533 813.42863,908.95521 802.91509,908.29911 C 777.89277,906.73755 776.79897,911.05423 781.20878,944.42536 C 782.66451,955.44156 788.65033,963.6302 792.37109,973.23261 z"
         id="path2636"
         style="fill:#808080;stroke:#000000;stroke-width:1.30486405px;stroke-linecap:butt;stroke-linejoin:miter;stroke-opacity:1" />
      <path
         d="M -727.20313,899.02922 C -735.52671,884.94878 -682.02098,902.77975 -667.16323,892.29622 C -635.80137,870.16752 -700.76432,859.93817 -713.9646,859.53915 C -745.38138,858.58947 -746.7547,861.2147 -741.21797,881.50976 C -739.39023,888.20939 -731.87474,893.18939 -727.20312,899.02922 L -727.20313,899.02922 z"
         id="path2598"
         style="fill:#808080;stroke:#000000;stroke-width:1.14022863px;stroke-linecap:butt;stroke-linejoin:miter;stroke-opacity:1" />
      <path
         d="M -239.27174,891.91851 C -221.62131,904.97827 -198.62712,888.76247 -179.52343,896.20364 C -166.7209,891.13707 -150.43453,899.06222 -139.19605,892.67974 C -141.56927,880.74785 -155.71576,875.33597 -163.34211,866.60537 C -178.9525,854.04569 -204.88123,850.292 -218.32685,867.96771 C -225.89412,874.8306 -240.02968,877.9763 -242.45336,888.1242 C -241.7398,889.64315 -240.50524,890.81995 -239.27174,891.91851 L -239.27174,891.91851 z"
         id="path2602"
         style="fill:#808080;stroke:#000000;stroke-width:1px;stroke-linecap:butt;stroke-linejoin:miter;stroke-opacity:1" />
      <path
         d="M 34.285711,880.93361 C 31.169151,874.70048 -22.685129,878.07647 -37.142859,878.07647 C -54.008281,878.07647 -120,870.32578 -120,889.50504 C -120,911.2224 -137.10281,920.94362 -114.28571,926.6479 C -85.860772,933.75413 -4.2014947,929.50504 25.714285,929.50504 C 41.225978,929.50504 37.142856,909.79876 37.142856,895.21933"
         id="path2606"
         style="fill:#b3b3b3;stroke:#000000;stroke-width:1px;stroke-linecap:butt;stroke-linejoin:miter;stroke-opacity:1" />
      <path
         d="M -430.424,853.76537 C -431.55128,850.06693 -600.12367,848.76658 -626.22372,847.99776 C -693.57463,846.01382 -666.99851,854.48461 -658.83387,889.78459 C -654.10722,910.22039 -593.30932,903.11404 -565.94108,903.92022 C -498.02109,905.92092 -413.80397,912.2953 -352.92767,907.34506 C -324.17295,905.00684 -360.41992,868.92442 -366.201,849.95751 C -366.49183,849.00337 -454.62632,847.57057 -455.58783,847.32447"
         id="path2610"
         style="fill:#999999;stroke:#000000;stroke-width:1.21900237px;stroke-linecap:butt;stroke-linejoin:miter;stroke-opacity:1" />
      <path
         d="M 468.53188,825.35993 C 467.96998,822.93 374.18085,820.46042 357.26646,819.58208 C 346.30416,819.01282 348.46089,855.63495 347.76357,863.81237 C 346.55952,877.93198 384.0659,863.46131 402.15964,864.4009 C 421.50944,865.4057 501.23101,878.75918 502.77263,860.68083 C 504.40966,841.48361 506.40103,822.77675 482.79668,826.10068 C 478.10697,826.76107 473.28682,825.60684 468.53188,825.35993 L 468.53188,825.35993 z"
         id="path2612"
         style="fill:#808080;stroke:#000000;stroke-width:0.88403618px;stroke-linecap:butt;stroke-linejoin:miter;stroke-opacity:1" />
      <path
         d="M -802.85714,903.79076 C -802.18216,906.49066 -707.13075,903.79076 -691.42857,903.79076 C -657.35124,903.79076 -612.26105,900.76712 -582.85714,906.6479 C -565.1379,910.19175 -587.22247,945.29894 -600,958.07647 C -613.21607,971.29254 -700.92018,958.07647 -722.85714,958.07647 C -754.13224,958.07647 -783.28396,955.21933 -814.28571,955.21933 C -818.09523,955.21933 -821.90476,955.21933 -825.71428,955.21933 C -828.72256,955.21933 -840.7491,903.79076 -802.85714,903.79076 L -802.85714,903.79076 z"
         id="path2614"
         style="fill:#b3b3b3;stroke:#000000;stroke-width:1px;stroke-linecap:butt;stroke-linejoin:miter;stroke-opacity:1" />
      <path
         d="M 85.714284,912.36218 C 80.803515,912.36218 89.190076,981.05166 91.42857,986.64789 C 97.861266,1002.7296 127.12268,975.30003 128.57143,969.50504 C 129.74923,964.79382 130.47619,959.98123 131.42857,955.21932 C 137.48703,924.92703 142.39528,920.93361 111.42857,920.93361 C 103.11308,920.93361 105.90667,919.09298 102.85714,918.07647"
         id="path2616"
         style="fill:#cccccc;stroke:#000000;stroke-width:1px;stroke-linecap:butt;stroke-linejoin:miter;stroke-opacity:1" />
      <path
         d="M 594.28572,855.21932 C 594.28572,867.69075 592.90887,906.85479 597.14286,923.79075 C 597.91675,926.8863 630.45793,903.79075 662.85715,903.79075 C 704.1039,903.79075 717.14286,915.5177 717.14286,875.21932 C 717.14286,841.43593 727.22935,817.6977 691.42857,826.6479 C 673.4981,831.13051 657.94966,834.30334 642.85715,838.07646 C 627.28462,841.96959 608.0806,844.18341 594.28572,855.21932 L 594.28572,855.21932 z"
         id="path2620"
         style="fill:#999999;stroke:#000000;stroke-width:1px;stroke-linecap:butt;stroke-linejoin:miter;stroke-opacity:1" />
      <path
         d="M 141.23042,874.2478 C 134.22205,878.27336 137.80146,921.60386 140.48527,938.63533 C 143.65436,958.74641 145.67076,974.95724 160.14641,966.64249 C 175.48389,957.83272 171.93526,917.04541 169.32682,900.49217 C 165.56689,876.63162 169.22182,859.63932 150.43826,863.56467 C 146.33947,864.42123 144.2997,870.68675 141.23042,874.2478 L 141.23042,874.2478 z"
         id="path2622"
         style="fill:#999999;stroke:#000000;stroke-width:0.86846203px;stroke-linecap:butt;stroke-linejoin:miter;stroke-opacity:1" />
      <path
         d="M 308.37012,826.73369 C 278.78635,826.73369 218.00691,823.8868 174.44247,823.8868 C 146.13368,823.8868 158.47421,857.30506 161.88675,866.59021 C 165.18932,875.57615 224.44272,876.23936 237.22106,877.97778 C 267.03727,882.03411 297.57721,877.37824 320.92584,869.4371 C 353.71057,858.28664 345.47323,834.50701 337.66679,823.88679 C 333.25517,817.88501 318.13568,825.78472 308.37012,826.73369 L 308.37012,826.73369 z"
         id="path2624"
         style="fill:#4d4d4d;stroke:#000000;stroke-width:1.2081306px;stroke-linecap:butt;stroke-linejoin:miter;stroke-opacity:1" />
      <path
         d="M -759.45724,867.82208 C -750.38658,863.65404 -820.3575,865.53852 -870.99592,866.01224 C -897.99711,866.26483 -902.46292,869.78872 -893.06403,886.19161 C -885.57692,899.25807 -815.8557,899.154 -800.47416,902.44508 C -775.42763,907.8041 -744.76657,900.87605 -733.67076,893.26031 C -724.66729,887.08068 -755.28588,870.56319 -759.45724,867.82208 L -759.45724,867.82208 z"
         id="path2626"
         style="fill:#b3b3b3;stroke:#000000;stroke-width:1.055246px;stroke-linecap:butt;stroke-linejoin:miter;stroke-opacity:1" />
      <path
         d="M -859.19585,1251.1291 C -889.90082,1232.4146 -887.35166,1196.6292 -891.00527,1168.2323 C -886.16455,1146.4005 -890.2401,1123.2182 -884.86025,1101.9193 C -868.09817,1075.1192 -827.34503,1068.2146 -795.02218,1075.6528 C -758.26913,1082.24 -737.14148,1114.1836 -735.63683,1143.9679 C -727.65766,1172.1384 -715.68019,1207.6543 -741.5714,1231.6841 C -778.30878,1246.0328 -821.90948,1239.3632 -858.70705,1251.4078 L -859.19585,1251.1291 z"
         id="path2640"
         style="fill:#808080;stroke:#000000;stroke-width:1.08766985px;stroke-linecap:butt;stroke-linejoin:miter;stroke-opacity:1" />
      <path
         d="M -1011.5367,841.79159 C -1020.619,841.92379 -1016.3337,938.95488 -1015.9208,958.93468 C -1015.5785,975.49731 -914.91006,966.03109 -893.29115,965.7164 C -890.94147,965.68219 -902.57534,875.50475 -898.69848,868.70498 C -879.46405,834.96913 -918.45114,837.581 -943.56643,837.94658 C -968.25658,838.30599 -984.65856,845.15029 -1011.5367,841.7916 L -1011.5367,841.79159 z"
         id="path2642"
         style="fill:#999999;stroke:#000000;stroke-width:1.09080958px;stroke-linecap:butt;stroke-linejoin:miter;stroke-opacity:1" />
      <path
         d="M -885.71428,906.6479 C -903.50622,906.6479 -889.22051,958.07647 -871.42857,958.07647 C -829.02068,958.07647 -834.28571,952.8836 -834.28571,909.50504 C -834.28571,886.47002 -871.69854,898.23845 -885.71428,906.6479 L -885.71428,906.6479 z"
         id="path2644"
         style="fill:#808080;stroke:#000000;stroke-width:1px;stroke-linecap:butt;stroke-linejoin:miter;stroke-opacity:1" />
      <path
         d="M -892.72382,978.16327 C -892.72382,967.74697 -903.53473,1030.6607 -888.05772,1077.9386 C -887.63632,1079.2259 -810.9706,1072.2371 -804.06801,1072.2371 C -781.49571,1072.2371 -783.8958,1012.5462 -780.73753,1000.9691 C -775.09016,980.2677 -757.99914,955.3575 -794.73582,955.3575 C -847.59151,955.3575 -868.28485,953.27854 -892.72383,978.16329 L -892.72382,978.16327 z"
         id="path2646"
         style="fill:#b3b3b3;stroke:#000000;stroke-width:1.27650452px;stroke-linecap:butt;stroke-linejoin:miter;stroke-opacity:1" />
      <path
         d="M -337.8276,904.03951 C -383.28116,904.03951 -375.71724,954.92853 -330.26367,954.92853 C -275.22237,954.92853 -182.50453,963.2138 -156.29327,943.61986 C -105.35759,905.54343 -115.90037,898.38517 -209.24078,898.38517 C -256.55588,898.38517 -293.29807,897.382 -337.8276,904.03951 L -337.8276,904.03951 z"
         id="path2648"
         style="fill:#b3b3b3;stroke:#000000;stroke-width:1.61851823px;stroke-linecap:butt;stroke-linejoin:miter;stroke-opacity:1" />
      <path
         d="M -722.94776,1074.4337 C -727.02273,1054.9914 -710.82374,1040.6257 -733.50314,1024.0723 C -743.47613,1016.7932 -759.97307,1023.7787 -772.51355,1026.4071 C -777.24203,1027.3982 -770.01109,1063.4747 -768.7624,1069.4323 C -765.10142,1086.8995 -758.9786,1095.5321 -748.52654,1103.1609 C -738.1392,1110.7425 -725.58123,1123.9735 -725.23758,1101.2005 C -724.99907,1085.3962 -729.69463,1097.1035 -722.94776,1074.4337 L -722.94776,1074.4337 z"
         id="path2650"
         style="fill:#808080;stroke:#000000;stroke-width:0.95001894px;stroke-linecap:butt;stroke-linejoin:miter;stroke-opacity:1" />
      <path
         d="M -342.15517,861.90964 C -365.26309,859.13839 -342.15517,884.76198 -342.15517,896.18815 C -342.15517,902.95697 -277.014,899.1689 -258.27051,899.1689 C -241.2618,899.1689 -242.73631,871.82335 -242.73631,866.38075 C -242.73631,838.16943 -244.31838,849.98668 -292.44574,849.98668 C -325.23609,849.98668 -348.30149,844.21908 -342.15517,861.90964 L -342.15517,861.90964 z"
         id="path2652"
         style="fill:#b3b3b3;stroke:#000000;stroke-width:0.75313795px;stroke-linecap:butt;stroke-linejoin:miter;stroke-opacity:1" />
      <path
         d="M 721.88073,841.2586 C 719.53115,854.43324 713.0263,867.60473 714.09469,880.94637 C 721.87456,895.52081 744.17355,892.88251 759.51222,896.32461 C 781.81877,899.34609 809.32255,901.44583 826.05008,886.85185 C 831.20477,881.58969 821.8558,875.54467 828.31776,871.58735 C 836.47797,862.57534 824.14823,854.3193 815.02455,850.54237 C 797.99817,843.85672 780.10839,838.04145 761.78257,834.80296 C 749.58688,834.04809 736.2665,833.11751 724.72989,835.73023 C 722.63493,837.03233 722.19784,839.20782 721.88073,841.2586 L 721.88073,841.2586 z"
         id="path2654"
         style="fill:#808080;stroke:#000000;stroke-width:0.6898827px;stroke-linecap:butt;stroke-linejoin:miter;stroke-opacity:1" />
      <path
         d="M 576.71447,835.84322 C 567.93722,836.48474 559.81039,840.90211 550.63971,839.73994 C 539.18576,842.17242 530.11999,838.41874 518.80143,843.49266 C 510.09736,848.65894 512.65263,865.04886 519.6954,870.84498 C 531.4926,883.04945 547.91433,883.38154 562.50622,884.30446 C 576.73417,883.3776 592.69407,880.28899 591.18673,861.02155 C 590.18637,852.41299 583.71451,835.23365 576.71447,835.84322 L 576.71447,835.84322 z"
         id="path2656"
         style="fill:#b3b3b3;stroke:#000000;stroke-width:0.42680967px;stroke-linecap:butt;stroke-linejoin:miter;stroke-opacity:1" />
      <path
         d="M -914.89118,965.00904 C -893.1614,969.29749 -896.75875,1022.0325 -896.84457,1055.0744 C -894.09106,1092.7266 -886.87056,1129.6184 -890.17605,1168.6766 C -891.86442,1197.7571 -879.74008,1232.6238 -891.84724,1249.0246 C -935.63525,1231.1951 -992.09708,1268.3489 -1039.94,1253.6731 C -1065.6419,1220.7357 -1066.111,1143.5295 -1047.4086,1099.3679 C -1033.6702,1046.7494 -1041.7562,968.25058 -1007.8663,963.79311 C -990.52003,971.73312 -948.65317,987.1232 -932.1704,967.96511 C -927.44859,965.76279 -934.02923,975.8665 -929.17688,976.43764 L -914.89118,965.00904 z"
         id="path2658"
         style="fill:#cccccc;stroke:#000000;stroke-width:1.44422555px;stroke-linecap:butt;stroke-linejoin:miter;stroke-opacity:1" />
      <path
         d="M 99.601677,830.47389 C 58.882888,831.03792 -12.431543,832.02576 -64.793833,832.75107 C -112.2532,833.40848 -160.43824,831.22479 -208.24218,831.88697 C -228.384,832.16597 -272.00293,869.83496 -211.22664,868.99309 C -155.08785,868.21546 -89.289153,875.85744 -36.219343,875.12232 C -11.910105,874.7856 16.639535,879.31359 40.73175,874.05641 C 56.844602,870.54041 80.007423,873.51237 96.696181,873.2812 C 114.50094,873.03456 136.74161,872.40565 149.12335,869.70383 C 174.0965,864.25442 164.76189,835.27355 117.16953,835.9328 C 110.89082,836.01977 105.45762,832.29352 99.601675,830.47388 L 99.601677,830.47389 z"
         id="path2660"
         style="fill:#999999;stroke:#000000;stroke-width:1.10528219px;stroke-linecap:butt;stroke-linejoin:miter;stroke-opacity:1" />
    </g>
  </g>
  <g
     transform="translate(926.89589,-400.43361)"
     id="layer3" />
</svg>
